<svg width="105" height="73" viewBox="0 0 105 73" fill="none" xmlns="http://www.w3.org/2000/svg">
<path opacity="0.8" d="M78.9774 47.1526C76.2671 52.6892 71.4594 58.4293 65.6109 59.5329C56.7739 61.2003 54.7671 68.6463 39.6917 65.8992C37.4837 65.5084 35.3293 64.8536 33.2736 63.9487C32.2615 63.4984 31.281 62.9786 30.3388 62.393C22.0018 57.2074 18.5263 47.8148 19.3532 38.5831C20.4321 26.4408 28.7717 21.7072 34.1424 19.0067C39.5132 16.3062 47.1703 4.03761 62.0121 6.60914C64.2855 6.99323 66.5022 7.66554 68.61 8.61026C73.4308 10.7962 78.0941 14.821 80.4225 20.0984C80.5975 20.4946 80.7611 20.8979 80.9134 21.3083C83.8954 29.3194 82.6721 39.6042 78.9774 47.1526Z" fill="#B7CDEF" fill-opacity="0.7"/>
<rect x="17.6594" y="12.7725" width="84.9187" height="11.9668" rx="5.98339" fill="#ECF2FA"/>
<rect x="9.65332" y="28.0632" width="84.9187" height="11.9668" rx="5.98339" fill="#ECF2FA"/>
<rect x="1.64709" y="44.1519" width="84.9187" height="11.9668" rx="5.98339" fill="#ECF2FA"/>
<path d="M96.4751 16.7612C96.9799 16.7612 97.464 16.9644 97.8209 17.3259C98.1778 17.6875 98.3783 18.1779 98.3783 18.6892C98.3783 19.2005 98.1778 19.6909 97.8209 20.0525C97.464 20.4141 96.9799 20.6172 96.4751 20.6172C95.9704 20.6172 95.4863 20.4141 95.1294 20.0525C94.7725 19.6909 94.572 19.2005 94.572 18.6892C94.572 18.1779 94.7725 17.6875 95.1294 17.3259C95.4863 16.9644 95.9704 16.7612 96.4751 16.7612ZM95.9542 17.9937C95.9313 17.9777 95.9035 17.9703 95.8758 17.9728C95.848 17.9754 95.8221 17.9877 95.8024 18.0077L95.7886 18.0243C95.7728 18.0475 95.7655 18.0756 95.768 18.1037C95.7705 18.1318 95.7827 18.1581 95.8024 18.1781L96.3067 18.6892L95.8024 19.2004L95.7886 19.2172C95.7728 19.2404 95.7656 19.2685 95.7681 19.2965C95.7706 19.3246 95.7827 19.3508 95.8024 19.3708L95.8188 19.3847C95.8417 19.4008 95.8695 19.4082 95.8972 19.4056C95.9249 19.403 95.9509 19.3907 95.9706 19.3708L96.4751 18.8598L96.9797 19.3708L96.9964 19.3847C97.0193 19.4007 97.0469 19.4081 97.0746 19.4055C97.1023 19.4029 97.1282 19.3907 97.1479 19.3708L97.1617 19.3541C97.1775 19.3309 97.1848 19.3028 97.1823 19.2747C97.1798 19.2466 97.1676 19.2203 97.1479 19.2004L96.6436 18.6892L97.1479 18.1781L97.1617 18.1612C97.1775 18.138 97.1847 18.1099 97.1822 18.0819C97.1797 18.0539 97.1675 18.0276 97.1479 18.0077L97.1315 17.9937C97.1086 17.9777 97.0808 17.9703 97.0531 17.9728C97.0254 17.9754 96.9994 17.9877 96.9797 18.0077L96.4751 18.5186L95.9706 18.0077L95.9542 17.9937Z" fill="#BDD0F1"/>
<path d="M88.4688 32.0522C88.9735 32.0522 89.4576 32.2554 89.8145 32.6169C90.1714 32.9785 90.3719 33.4689 90.3719 33.9802C90.3719 34.4916 90.1714 34.982 89.8145 35.3435C89.4576 35.7051 88.9735 35.9082 88.4688 35.9082C87.9641 35.9082 87.48 35.7051 87.1231 35.3435C86.7662 34.982 86.5657 34.4916 86.5657 33.9802C86.5657 33.4689 86.7662 32.9785 87.1231 32.6169C87.48 32.2554 87.9641 32.0522 88.4688 32.0522ZM87.9478 33.2847C87.9249 33.2687 87.8972 33.2613 87.8694 33.2638C87.8417 33.2664 87.8157 33.2787 87.796 33.2987L87.7822 33.3153C87.7664 33.3385 87.7591 33.3666 87.7616 33.3947C87.7642 33.4228 87.7763 33.4491 87.796 33.4691L88.3004 33.9802L87.796 34.4914L87.7822 34.5083C87.7665 34.5314 87.7592 34.5595 87.7617 34.5875C87.7643 34.6156 87.7764 34.6418 87.796 34.6618L87.8125 34.6757C87.8354 34.6918 87.8631 34.6992 87.8908 34.6966C87.9186 34.6941 87.9446 34.6817 87.9642 34.6618L88.4688 34.1509L88.9734 34.6618L88.99 34.6757C89.0129 34.6917 89.0406 34.6991 89.0683 34.6965C89.096 34.694 89.1219 34.6817 89.1416 34.6618L89.1554 34.6451C89.1712 34.6219 89.1785 34.5938 89.176 34.5657C89.1734 34.5376 89.1613 34.5113 89.1416 34.4914L88.6372 33.9802L89.1416 33.4691L89.1554 33.4522C89.1711 33.429 89.1784 33.401 89.1759 33.3729C89.1733 33.3449 89.1612 33.3186 89.1416 33.2987L89.1251 33.2847C89.1022 33.2687 89.0745 33.2613 89.0468 33.2638C89.019 33.2664 88.993 33.2787 88.9734 33.2987L88.4688 33.8096L87.9642 33.2987L87.9478 33.2847Z" fill="#BDD0F1"/>
<path d="M80.4627 48.1409C80.9674 48.1409 81.4515 48.344 81.8084 48.7056C82.1653 49.0671 82.3658 49.5575 82.3658 50.0689C82.3658 50.5802 82.1653 51.0706 81.8084 51.4321C81.4515 51.7937 80.9674 51.9968 80.4627 51.9968C79.958 51.9968 79.4739 51.7937 79.117 51.4321C78.7601 51.0706 78.5596 50.5802 78.5596 50.0689C78.5596 49.5575 78.7601 49.0671 79.117 48.7056C79.4739 48.344 79.958 48.1409 80.4627 48.1409ZM79.9417 49.3733C79.9188 49.3573 79.8911 49.3499 79.8633 49.3525C79.8356 49.355 79.8096 49.3673 79.7899 49.3873L79.7761 49.4039C79.7603 49.4271 79.753 49.4553 79.7555 49.4833C79.7581 49.5114 79.7702 49.5378 79.7899 49.5577L80.2943 50.0689L79.7899 50.58L79.7761 50.5969C79.7604 50.6201 79.7531 50.6481 79.7556 50.6762C79.7582 50.7042 79.7703 50.7305 79.7899 50.7504L79.8064 50.7644C79.8293 50.7804 79.857 50.7878 79.8847 50.7852C79.9125 50.7827 79.9384 50.7704 79.9581 50.7504L80.4627 50.2395L80.9673 50.7504L80.9839 50.7644C81.0068 50.7803 81.0345 50.7877 81.0622 50.7851C81.0899 50.7826 81.1158 50.7703 81.1355 50.7504L81.1492 50.7338C81.1651 50.7106 81.1724 50.6825 81.1698 50.6544C81.1673 50.6263 81.1552 50.5999 81.1355 50.58L80.6311 50.0689L81.1355 49.5577L81.1492 49.5408C81.165 49.5176 81.1723 49.4896 81.1698 49.4615C81.1672 49.4335 81.1551 49.4072 81.1355 49.3873L81.119 49.3733C81.0961 49.3573 81.0684 49.3499 81.0406 49.3525C81.0129 49.355 80.9869 49.3673 80.9673 49.3873L80.4627 49.8982L79.9581 49.3873L79.9417 49.3733Z" fill="#BDD0F1"/>
<rect x="21.8595" y="18.2239" width="27.1688" height="1.06371" rx="0.531857" fill="#BDD0F1"/>
<rect x="13.8533" y="33.5149" width="27.1688" height="1.06371" rx="0.531857" fill="#BDD0F1"/>
<rect x="5.84692" y="49.6035" width="27.1688" height="1.06371" rx="0.531857" fill="#BDD0F1"/>
</svg>
