<svg width="25" height="24" viewBox="0 0 25 24" fill="none" xmlns="http://www.w3.org/2000/svg">
<path d="M19.4914 10.6588C15.6816 8.39629 9.39737 8.18826 5.76045 9.29207C5.17639 9.46934 4.55876 9.13951 4.38184 8.55563C4.20482 7.97119 4.53417 7.35401 5.11867 7.17646C9.29361 5.90921 16.2338 6.15394 20.6197 8.75745C21.1451 9.06936 21.3174 9.7478 21.006 10.2722C20.6944 10.7975 20.0154 10.9707 19.4914 10.6588ZM19.3666 14.0099C19.0993 14.4437 18.5322 14.5797 18.0991 14.3134C14.9228 12.361 10.0796 11.7954 6.32184 12.936C5.83455 13.0833 5.31984 12.8085 5.17182 12.3222C5.025 11.8349 5.29988 11.3211 5.78631 11.1729C10.079 9.8703 15.4154 10.5012 19.0635 12.7431C19.4966 13.0099 19.6329 13.5772 19.3666 14.0099ZM17.9204 17.2282C17.708 17.5766 17.2545 17.6857 16.9075 17.4734C14.132 15.7771 10.6386 15.394 6.52455 16.3337C6.12811 16.4246 5.73299 16.1762 5.64257 15.7798C5.55177 15.3835 5.79926 14.9883 6.19659 14.8978C10.6987 13.8686 14.5607 14.3116 17.676 16.2152C18.0233 16.4273 18.1327 16.881 17.9204 17.2282ZM12.5 0.180964C5.97259 0.180964 0.680908 5.47254 0.680908 11.9999C0.680908 18.528 5.97259 23.8191 12.5 23.8191C19.0276 23.8191 24.319 18.528 24.319 11.9999C24.319 5.47254 19.0276 0.180964 12.5 0.180964Z" fill="#1ED760"/>
</svg>
