<svg width="18" height="19" viewBox="0 0 18 19" fill="none" xmlns="http://www.w3.org/2000/svg">
<path d="M7.9325 13.0675L4.8075 9.9425C4.7493 9.88444 4.70312 9.81547 4.67161 9.73954C4.6401 9.66361 4.62388 9.58221 4.62388 9.5C4.62388 9.41779 4.6401 9.33639 4.67161 9.26046C4.70312 9.18453 4.7493 9.11556 4.8075 9.0575L7.9325 5.9325C8.04986 5.81514 8.20903 5.74921 8.375 5.74921C8.54097 5.74921 8.70014 5.81514 8.8175 5.9325C8.93486 6.04986 9.00079 6.20903 9.00079 6.375C9.00079 6.54097 8.93486 6.70014 8.8175 6.8175L6.75875 8.875H12.75C12.9158 8.875 13.0747 8.94085 13.1919 9.05806C13.3092 9.17527 13.375 9.33424 13.375 9.5C13.375 9.66576 13.3092 9.82473 13.1919 9.94194C13.0747 10.0592 12.9158 10.125 12.75 10.125H6.75875L8.8175 12.1825C8.93486 12.2999 9.00079 12.459 9.00079 12.625C9.00079 12.791 8.93486 12.9501 8.8175 13.0675C8.70014 13.1849 8.54097 13.2508 8.375 13.2508C8.20903 13.2508 8.04986 13.1849 7.9325 13.0675ZM0.25 9.5C0.25 11.8206 1.17187 14.0462 2.81282 15.6872C4.45376 17.3281 6.67936 18.25 9 18.25C11.3206 18.25 13.5462 17.3281 15.1872 15.6872C16.8281 14.0462 17.75 11.8206 17.75 9.5C17.75 7.17936 16.8281 4.95376 15.1872 3.31282C13.5462 1.67187 11.3206 0.75 9 0.75C6.67936 0.75 4.45376 1.67187 2.81282 3.31282C1.17187 4.95376 0.25 7.17936 0.25 9.5ZM9 17C8.01509 17 7.03982 16.806 6.12987 16.4291C5.21993 16.0522 4.39314 15.4997 3.6967 14.8033C3.00026 14.1069 2.44781 13.2801 2.0709 12.3701C1.69399 11.4602 1.5 10.4849 1.5 9.5C1.5 8.51509 1.69399 7.53982 2.0709 6.62987C2.44781 5.71993 3.00026 4.89314 3.6967 4.1967C4.39314 3.50026 5.21993 2.94781 6.12987 2.5709C7.03982 2.19399 8.01509 2 9 2C10.9891 2 12.8968 2.79018 14.3033 4.1967C15.7098 5.60322 16.5 7.51088 16.5 9.5C16.5 11.4891 15.7098 13.3968 14.3033 14.8033C12.8968 16.2098 10.9891 17 9 17Z" fill="#A13E97"/>
</svg>
