<svg width="20" height="20" viewBox="0 0 20 20" fill="none" xmlns="http://www.w3.org/2000/svg">
<path d="M10 2.5C10.9849 2.5 11.9602 2.69399 12.8701 3.0709C13.7801 3.44781 14.6069 4.00026 15.3033 4.6967C15.9997 5.39314 16.5522 6.21993 16.9291 7.12987C17.306 8.03982 17.5 9.01509 17.5 10C17.5 10.9849 17.306 11.9602 16.9291 12.8701C16.5522 13.7801 15.9997 14.6069 15.3033 15.3033C14.6069 15.9997 13.7801 16.5522 12.8701 16.9291C11.9602 17.306 10.9849 17.5 10 17.5C8.01088 17.5 6.10322 16.7098 4.6967 15.3033C3.29018 13.8968 2.5 11.9891 2.5 10C2.5 8.01088 3.29018 6.10322 4.6967 4.6967C6.10322 3.29018 8.01088 2.5 10 2.5ZM8.1675 7.29875C8.04725 7.2154 7.90157 7.17688 7.75584 7.1899C7.61011 7.20292 7.47357 7.26666 7.37 7.37L7.29875 7.4575C7.2154 7.57775 7.17688 7.72343 7.1899 7.86916C7.20292 8.01489 7.26666 8.15143 7.37 8.255L9.11625 10L7.37 11.745L7.29875 11.8325C7.2154 11.9527 7.17688 12.0984 7.1899 12.2442C7.20292 12.3899 7.26666 12.5264 7.37 12.63L7.4575 12.7013C7.57775 12.7846 7.72343 12.8231 7.86916 12.8101C8.01489 12.7971 8.15143 12.7333 8.255 12.63L10 10.8837L11.745 12.63L11.8325 12.7013C11.9527 12.7846 12.0984 12.8231 12.2442 12.8101C12.3899 12.7971 12.5264 12.7333 12.63 12.63L12.7013 12.5425C12.7846 12.4223 12.8231 12.2766 12.8101 12.1308C12.7971 11.9851 12.7333 11.8486 12.63 11.745L10.8837 10L12.63 8.255L12.7013 8.1675C12.7846 8.04725 12.8231 7.90157 12.8101 7.75584C12.7971 7.61011 12.7333 7.47357 12.63 7.37L12.5425 7.29875C12.4223 7.2154 12.2766 7.17688 12.1308 7.1899C11.9851 7.20292 11.8486 7.26666 11.745 7.37L10 9.11625L8.255 7.37L8.1675 7.29875Z" fill="#D09FCB"/>
</svg>
