<?xml version="1.0" encoding="UTF-8"?>
<svg id="Layer_2" data-name="Layer 2" xmlns="http://www.w3.org/2000/svg" viewBox="0 0 557.91 446.89">
  <defs>
    <style>
      .cls-1 {
        fill: #ff5252;
      }
    </style>
  </defs>
  <g id="_Слой_1" data-name="Слой 1">
    <g>
      <path class="cls-1" d="m555.07,112.77l-276.12,276.12L85.97,195.91c-14.68-14.68-22.77-34.2-22.77-54.95,0-22.92,9.85-44.31,27.52-59.35,12.24-10.42,27.55-16.79,43.56-18.12,23.2-1.92,45.36,6.25,61.62,22.5l38.34,38.34,44.7,44.69L445.13,2.84C435.84.96,426.39.01,416.95.01c-36.07,0-72.13,13.75-99.66,41.28l-38.34,38.34-38.34-38.34C213.09,13.77,177.02,0,140.95,0S68.8,13.77,41.28,41.29c-55.04,55.04-55.04,144.28,0,199.32l184.07,184.07c29.61,29.61,77.6,29.61,107.2,0l184.07-184.07c27.52-27.52,41.29-63.59,41.29-99.66,0-9.44-.95-18.9-2.83-28.19Z"/>
      <path class="cls-1" d="m539.53,21.05c12.34,12.34,12.34,32.36,0,44.7l-49.26,49.26-211.32,211.32L116.77,164.14c-12.34-12.34-12.34-32.36,0-44.7h0c12.34-12.34,32.35-12.34,44.69,0l117.49,117.48L494.83,21.05c12.34-12.34,32.36-12.34,44.7,0h0Z"/>
    </g>
  </g>
</svg>