<svg width="17" height="17" viewBox="0 0 17 17" fill="none" xmlns="http://www.w3.org/2000/svg">
<path d="M8.49998 1.86011C4.83331 1.86011 1.83331 4.85344 1.83331 8.54011C1.83331 11.8734 4.27331 14.6401 7.45998 15.1401V10.4734H5.76665V8.54011H7.45998V7.06677C7.45998 5.39344 8.45331 4.47344 9.97998 4.47344C10.7066 4.47344 11.4666 4.60011 11.4666 4.60011V6.24677H10.6266C9.79998 6.24677 9.53998 6.76011 9.53998 7.28677V8.54011H11.3933L11.0933 10.4734H9.53998V15.1401C11.1109 14.892 12.5415 14.0905 13.5733 12.8801C14.6051 11.6698 15.1702 10.1305 15.1666 8.54011C15.1666 4.85344 12.1666 1.86011 8.49998 1.86011Z" fill="#A13E97"/>
</svg>
