<svg width="21" height="21" viewBox="0 0 21 21" fill="none" xmlns="http://www.w3.org/2000/svg">
<path d="M9.64125 2.07752C9.87334 1.8581 10.1806 1.73584 10.5 1.73584C10.8194 1.73584 11.1267 1.8581 11.3588 2.07752L17.4137 7.80127C17.7888 8.15502 18 8.64877 18 9.16377V16.1263C18 16.6236 17.8025 17.1005 17.4508 17.4521C17.0992 17.8037 16.6223 18.0013 16.125 18.0013H13.625C13.3787 18.0013 13.1347 17.9527 12.9072 17.8584C12.6796 17.7641 12.4729 17.6259 12.2987 17.4517C12.1246 17.2774 11.9865 17.0706 11.8924 16.8429C11.7982 16.6153 11.7498 16.3714 11.75 16.125V13C11.75 12.8343 11.6842 12.6753 11.5669 12.5581C11.4497 12.4409 11.2908 12.375 11.125 12.375H9.875C9.70924 12.375 9.55027 12.4409 9.43306 12.5581C9.31585 12.6753 9.25 12.8343 9.25 13V16.125C9.25 16.6223 9.05246 17.0992 8.70083 17.4508C8.34919 17.8025 7.87228 18 7.375 18H4.875C4.37772 18 3.90081 17.8025 3.54917 17.4508C3.19754 17.0992 3 16.6223 3 16.125V9.16252C3 8.64752 3.2125 8.15377 3.5875 7.80002L9.64125 2.07502V2.07752ZM10.5 2.98502L4.445 8.71002C4.38353 8.76829 4.33455 8.83846 4.30103 8.91624C4.26751 8.99403 4.25014 9.07782 4.25 9.16252V16.125C4.25 16.2908 4.31585 16.4498 4.43306 16.567C4.55027 16.6842 4.70924 16.75 4.875 16.75H7.375C7.54076 16.75 7.69973 16.6842 7.81694 16.567C7.93415 16.4498 8 16.2908 8 16.125V13C8 12.5027 8.19754 12.0258 8.54917 11.6742C8.90081 11.3226 9.37772 11.125 9.875 11.125H11.125C11.6223 11.125 12.0992 11.3226 12.4508 11.6742C12.8025 12.0258 13 12.5027 13 13V16.125C13 16.2908 13.0658 16.4498 13.1831 16.567C13.3003 16.6842 13.4592 16.75 13.625 16.75H16.125C16.2908 16.75 16.4497 16.6842 16.5669 16.567C16.6842 16.4498 16.75 16.2908 16.75 16.125V9.16252C16.75 9.07761 16.7327 8.99358 16.6992 8.91557C16.6657 8.83755 16.6166 8.76719 16.555 8.70877L10.5 2.98502Z" fill="#A13E97"/>
</svg>
