<svg width="16" height="16" viewBox="0 0 16 16" fill="none" xmlns="http://www.w3.org/2000/svg">
<path d="M7.313 1.26211C7.49867 1.08658 7.74449 0.98877 8 0.98877C8.25551 0.98877 8.50133 1.08658 8.687 1.26211L13.531 5.84111C13.831 6.12411 14 6.51911 14 6.93111V12.5011C14 12.8989 13.842 13.2805 13.5607 13.5618C13.2794 13.8431 12.8978 14.0011 12.5 14.0011H10.5C10.3029 14.0011 10.1078 13.9623 9.92574 13.8868C9.74369 13.8114 9.57829 13.7008 9.43899 13.5614C9.29969 13.422 9.18922 13.2565 9.11389 13.0744C9.03857 12.8923 8.99987 12.6972 9 12.5001V10.0001C9 9.8675 8.94732 9.74033 8.85355 9.64656C8.75979 9.55279 8.63261 9.50011 8.5 9.50011H7.5C7.36739 9.50011 7.24021 9.55279 7.14645 9.64656C7.05268 9.74033 7 9.8675 7 10.0001V12.5001C7 12.8979 6.84196 13.2795 6.56066 13.5608C6.27936 13.8421 5.89782 14.0001 5.5 14.0001H3.5C3.10218 14.0001 2.72064 13.8421 2.43934 13.5608C2.15804 13.2795 2 12.8979 2 12.5001V6.93011C2 6.51811 2.17 6.12311 2.47 5.84011L7.313 1.26011V1.26211ZM8 1.98811L3.156 6.56811C3.10682 6.61473 3.06764 6.67086 3.04082 6.73309C3.014 6.79532 3.00012 6.86235 3 6.93011V12.5001C3 12.6327 3.05268 12.7599 3.14645 12.8537C3.24021 12.9474 3.36739 13.0001 3.5 13.0001H5.5C5.63261 13.0001 5.75979 12.9474 5.85355 12.8537C5.94732 12.7599 6 12.6327 6 12.5001V10.0001C6 9.60229 6.15804 9.22076 6.43934 8.93945C6.72064 8.65815 7.10218 8.50011 7.5 8.50011H8.5C8.89782 8.50011 9.27936 8.65815 9.56066 8.93945C9.84196 9.22076 10 9.60229 10 10.0001V12.5001C10 12.6327 10.0527 12.7599 10.1464 12.8537C10.2402 12.9474 10.3674 13.0001 10.5 13.0001H12.5C12.6326 13.0001 12.7598 12.9474 12.8536 12.8537C12.9473 12.7599 13 12.6327 13 12.5001V6.93011C13 6.86218 12.9862 6.79496 12.9594 6.73255C12.9326 6.67014 12.8933 6.61385 12.844 6.56711L8 1.98811Z" fill="#a13e97"/>
</svg>
