<svg width="17" height="17" viewBox="0 0 17 17" fill="none" xmlns="http://www.w3.org/2000/svg">
<path d="M5.69998 1.83325H11.3C13.4333 1.83325 15.1666 3.56659 15.1666 5.69992V11.2999C15.1666 12.3254 14.7593 13.3089 14.0341 14.0341C13.309 14.7592 12.3255 15.1666 11.3 15.1666H5.69998C3.56665 15.1666 1.83331 13.4333 1.83331 11.2999V5.69992C1.83331 4.67441 2.24069 3.69091 2.96583 2.96577C3.69097 2.24063 4.67448 1.83325 5.69998 1.83325ZM5.56665 3.16659C4.93013 3.16659 4.31968 3.41944 3.86959 3.86953C3.4195 4.31962 3.16665 4.93007 3.16665 5.56659V11.4333C3.16665 12.7599 4.23998 13.8333 5.56665 13.8333H11.4333C12.0698 13.8333 12.6803 13.5804 13.1304 13.1303C13.5805 12.6802 13.8333 12.0698 13.8333 11.4333V5.56659C13.8333 4.23992 12.76 3.16659 11.4333 3.16659H5.56665ZM12 4.16659C12.221 4.16659 12.433 4.25438 12.5892 4.41066C12.7455 4.56694 12.8333 4.7789 12.8333 4.99992C12.8333 5.22093 12.7455 5.43289 12.5892 5.58917C12.433 5.74545 12.221 5.83325 12 5.83325C11.779 5.83325 11.567 5.74545 11.4107 5.58917C11.2544 5.43289 11.1666 5.22093 11.1666 4.99992C11.1666 4.7789 11.2544 4.56694 11.4107 4.41066C11.567 4.25438 11.779 4.16659 12 4.16659ZM8.49998 5.16658C9.38403 5.16659 10.2319 5.51777 10.857 6.1429C11.4821 6.76802 11.8333 7.61586 11.8333 8.49992C11.8333 9.38397 11.4821 10.2318 10.857 10.8569C10.2319 11.4821 9.38403 11.8333 8.49998 11.8333C7.61592 11.8333 6.76808 11.4821 6.14296 10.8569C5.51784 10.2318 5.16665 9.38397 5.16665 8.49992C5.16665 7.61586 5.51784 6.76802 6.14296 6.1429C6.76808 5.51777 7.61592 5.16659 8.49998 5.16658ZM8.49998 6.49992C7.96955 6.49992 7.46084 6.71063 7.08577 7.0857C6.71069 7.46078 6.49998 7.96949 6.49998 8.49992C6.49998 9.03035 6.71069 9.53906 7.08577 9.91413C7.46084 10.2892 7.96955 10.4999 8.49998 10.4999C9.03041 10.4999 9.53912 10.2892 9.91419 9.91413C10.2893 9.53906 10.5 9.03035 10.5 8.49992C10.5 7.96949 10.2893 7.46078 9.91419 7.0857C9.53912 6.71063 9.03041 6.49992 8.49998 6.49992Z" fill="#A13E97"/>
</svg>
