<svg width="11" height="15" viewBox="0 0 11 15" fill="none" xmlns="http://www.w3.org/2000/svg">
<path d="M8.8333 0.166504H2.16663C1.4333 0.166504 0.839966 0.766504 0.839966 1.49984V13.4998C0.839966 14.2332 1.4333 14.8332 2.16663 14.8332H8.8333C9.56663 14.8332 10.1666 14.2332 10.1666 13.4998V1.49984C10.1666 0.766504 9.56663 0.166504 8.8333 0.166504ZM8.8333 12.1665H2.16663V2.83317H8.8333V12.1665ZM6.0333 8.31317V9.47984L7.90663 7.73317C8.04663 7.59984 8.04663 7.37984 7.90663 7.2465L6.0333 5.49984V6.63317C3.95997 6.91984 3.1333 8.33984 2.8333 9.7665C3.5733 8.7665 4.5533 8.31317 6.0333 8.31317Z" fill="#A13E97"/>
</svg>
