<svg width="115" height="108" viewBox="0 0 115 108" fill="none" xmlns="http://www.w3.org/2000/svg">
<path opacity="0.8" d="M108.006 73.3133C103.128 83.2388 94.4771 93.529 83.9529 95.5074C68.0509 98.4965 64.4397 111.845 37.3121 106.92C33.3389 106.22 29.4621 105.046 25.7629 103.424C23.9417 102.616 22.1772 101.684 20.4819 100.635C5.47971 91.3384 -0.774344 74.5003 0.713591 57.9507C2.65499 36.1832 17.6619 27.6974 27.3264 22.8563C36.9909 18.0151 50.7696 -3.97883 77.4769 0.631141C81.5678 1.31969 85.5568 2.52495 89.3496 4.21853C98.0245 8.13724 106.416 15.3525 110.606 24.8132C110.921 25.5236 111.215 26.2466 111.489 26.9823C116.855 41.3438 114.654 59.7813 108.006 73.3133Z" fill="#B7CDEF" fill-opacity="0.7"/>
</svg>
