<svg width="17" height="17" viewBox="0 0 17 17" fill="none" xmlns="http://www.w3.org/2000/svg">
<path d="M11.5666 4.38C11.1109 3.85975 10.8598 3.19162 10.86 2.5H8.79998V10.7667C8.78409 11.214 8.59523 11.6377 8.27316 11.9486C7.95109 12.2595 7.52095 12.4333 7.07332 12.4333C6.12665 12.4333 5.33998 11.66 5.33998 10.7C5.33998 9.55333 6.44665 8.69333 7.58665 9.04667V6.94C5.28665 6.63333 3.27332 8.42 3.27332 10.7C3.27332 12.92 5.11332 14.5 7.06665 14.5C9.15998 14.5 10.86 12.8 10.86 10.7V6.50667C11.6953 7.10657 12.6982 7.42843 13.7266 7.42667V5.36667C13.7266 5.36667 12.4733 5.42667 11.5666 4.38Z" fill="#A13E97"/>
</svg>
