<svg width="17" height="17" viewBox="0 0 17 17" fill="none" xmlns="http://www.w3.org/2000/svg">
<path d="M15.4733 4.50008C14.96 4.73341 14.4067 4.88675 13.8333 4.96008C14.42 4.60675 14.8733 4.04675 15.0867 3.37341C14.5333 3.70675 13.92 3.94008 13.2733 4.07341C12.7467 3.50008 12.0067 3.16675 11.1667 3.16675C9.60001 3.16675 8.32001 4.44675 8.32001 6.02675C8.32001 6.25341 8.34667 6.47341 8.39334 6.68008C6.02001 6.56008 3.90667 5.42008 2.50001 3.69341C2.25334 4.11341 2.11334 4.60675 2.11334 5.12675C2.11334 6.12008 2.61334 7.00008 3.38667 7.50008C2.91334 7.50008 2.47334 7.36675 2.08667 7.16675V7.18675C2.08667 8.57341 3.07334 9.73341 4.38001 9.99341C3.96049 10.1082 3.52007 10.1242 3.09334 10.0401C3.27441 10.6084 3.62903 11.1057 4.10735 11.462C4.58567 11.8184 5.16364 12.0159 5.76001 12.0267C4.74909 12.827 3.496 13.2596 2.20667 13.2534C1.98001 13.2534 1.75334 13.2401 1.52667 13.2134C2.79334 14.0267 4.30001 14.5001 5.91334 14.5001C11.1667 14.5001 14.0533 10.1401 14.0533 6.36008C14.0533 6.23341 14.0533 6.11341 14.0467 5.98675C14.6067 5.58675 15.0867 5.08008 15.4733 4.50008Z" fill="#A13E97"/>
</svg>
