<svg width="12" height="14" viewBox="0 0 12 14" fill="none" xmlns="http://www.w3.org/2000/svg">
<path d="M5.313 1.26211C5.49867 1.08658 5.74449 0.98877 6 0.98877C6.25551 0.98877 6.50133 1.08658 6.687 1.26211L11.531 5.84111C11.831 6.12411 12 6.51911 12 6.93111V12.5011C12 12.8989 11.842 13.2805 11.5607 13.5618C11.2794 13.8431 10.8978 14.0011 10.5 14.0011H8.5C8.30293 14.0011 8.1078 13.9623 7.92574 13.8868C7.74369 13.8114 7.57829 13.7008 7.43899 13.5614C7.29969 13.422 7.18922 13.2565 7.11389 13.0744C7.03857 12.8923 6.99987 12.6972 7 12.5001V10.0001C7 9.8675 6.94732 9.74033 6.85355 9.64656C6.75979 9.55279 6.63261 9.50011 6.5 9.50011H5.5C5.36739 9.50011 5.24021 9.55279 5.14645 9.64656C5.05268 9.74033 5 9.8675 5 10.0001V12.5001C5 12.8979 4.84196 13.2795 4.56066 13.5608C4.27936 13.8421 3.89782 14.0001 3.5 14.0001H1.5C1.10218 14.0001 0.720644 13.8421 0.43934 13.5608C0.158035 13.2795 0 12.8979 0 12.5001V6.93011C0 6.51811 0.17 6.12311 0.47 5.84011L5.313 1.26011V1.26211ZM6 1.98811L1.156 6.56811C1.10682 6.61473 1.06764 6.67086 1.04082 6.73309C1.014 6.79532 1.00012 6.86235 1 6.93011V12.5001C1 12.6327 1.05268 12.7599 1.14645 12.8537C1.24021 12.9474 1.36739 13.0001 1.5 13.0001H3.5C3.63261 13.0001 3.75979 12.9474 3.85355 12.8537C3.94732 12.7599 4 12.6327 4 12.5001V10.0001C4 9.60229 4.15804 9.22076 4.43934 8.93945C4.72064 8.65815 5.10218 8.50011 5.5 8.50011H6.5C6.89782 8.50011 7.27936 8.65815 7.56066 8.93945C7.84196 9.22076 8 9.60229 8 10.0001V12.5001C8 12.6327 8.05268 12.7599 8.14645 12.8537C8.24021 12.9474 8.36739 13.0001 8.5 13.0001H10.5C10.6326 13.0001 10.7598 12.9474 10.8536 12.8537C10.9473 12.7599 11 12.6327 11 12.5001V6.93011C11 6.86218 10.9862 6.79496 10.9594 6.73255C10.9326 6.67014 10.8933 6.61385 10.844 6.56711L6 1.98811Z" fill="#212A34"/>
</svg>
