<svg width="12" height="14" viewBox="0 0 12 14" fill="none" xmlns="http://www.w3.org/2000/svg">
<path d="M6.687 1.26211C6.50133 1.08658 6.25551 0.98877 6 0.98877C5.74449 0.98877 5.49867 1.08658 5.313 1.26211L0.469001 5.84011C0.320682 5.98046 0.202582 6.14962 0.121937 6.33722C0.0412911 6.52482 -0.000201572 6.72691 7.36252e-07 6.93111V12.5011C0.000265837 12.8988 0.158418 13.28 0.439694 13.5611C0.72097 13.8422 1.10235 14.0001 1.5 14.0001H3C3.39783 14.0001 3.77936 13.8421 4.06066 13.5608C4.34197 13.2795 4.5 12.8979 4.5 12.5001V10.0001C4.5 9.8675 4.55268 9.74033 4.64645 9.64656C4.74022 9.55279 4.86739 9.50011 5 9.50011H7C7.13261 9.50011 7.25979 9.55279 7.35355 9.64656C7.44732 9.74033 7.5 9.8675 7.5 10.0001V12.5001C7.5 12.8979 7.65804 13.2795 7.93934 13.5608C8.22064 13.8421 8.60218 14.0001 9 14.0001H10.5C10.8978 14.0001 11.2794 13.8421 11.5607 13.5608C11.842 13.2795 12 12.8979 12 12.5001V6.93011C11.9999 6.72601 11.9582 6.52407 11.8774 6.33664C11.7966 6.14922 11.6784 5.98026 11.53 5.84011L6.687 1.26011V1.26211Z" fill="#212A34"/>
</svg>
