<svg width="14" height="14" viewBox="0 0 14 14" fill="none" xmlns="http://www.w3.org/2000/svg">
<path d="M6.146 9.854L3.646 7.354C3.59944 7.30755 3.56249 7.25238 3.53729 7.19163C3.51208 7.13089 3.49911 7.06577 3.49911 7C3.49911 6.93423 3.51208 6.86911 3.53729 6.80837C3.56249 6.74762 3.59944 6.69245 3.646 6.646L6.146 4.146C6.23989 4.05211 6.36722 3.99937 6.5 3.99937C6.63278 3.99937 6.76011 4.05211 6.854 4.146C6.94789 4.23989 7.00063 4.36722 7.00063 4.5C7.00063 4.63278 6.94789 4.76011 6.854 4.854L5.207 6.5H10C10.1326 6.5 10.2598 6.55268 10.3536 6.64645C10.4473 6.74021 10.5 6.86739 10.5 7C10.5 7.13261 10.4473 7.25979 10.3536 7.35355C10.2598 7.44732 10.1326 7.5 10 7.5H5.207L6.854 9.146C6.94789 9.23989 7.00063 9.36722 7.00063 9.5C7.00063 9.63278 6.94789 9.76011 6.854 9.854C6.76011 9.94789 6.63278 10.0006 6.5 10.0006C6.36722 10.0006 6.23989 9.94789 6.146 9.854ZM0 7C0 8.85652 0.737498 10.637 2.05025 11.9497C3.36301 13.2625 5.14348 14 7 14C8.85652 14 10.637 13.2625 11.9497 11.9497C13.2625 10.637 14 8.85652 14 7C14 5.14348 13.2625 3.36301 11.9497 2.05025C10.637 0.737498 8.85652 0 7 0C5.14348 0 3.36301 0.737498 2.05025 2.05025C0.737498 3.36301 0 5.14348 0 7ZM7 13C6.21207 13 5.43185 12.8448 4.7039 12.5433C3.97595 12.2417 3.31451 11.7998 2.75736 11.2426C2.20021 10.6855 1.75825 10.0241 1.45672 9.2961C1.15519 8.56815 1 7.78793 1 7C1 6.21207 1.15519 5.43185 1.45672 4.7039C1.75825 3.97595 2.20021 3.31451 2.75736 2.75736C3.31451 2.20021 3.97595 1.75825 4.7039 1.45672C5.43185 1.15519 6.21207 1 7 1C8.5913 1 10.1174 1.63214 11.2426 2.75736C12.3679 3.88258 13 5.4087 13 7C13 8.5913 12.3679 10.1174 11.2426 11.2426C10.1174 12.3679 8.5913 13 7 13Z" fill="#212A34"/>
</svg>
