<svg width="14" height="14" viewBox="0 0 14 14" fill="none" xmlns="http://www.w3.org/2000/svg">
<path d="M7.00004 0.359863C3.33337 0.359863 0.333374 3.3532 0.333374 7.03986C0.333374 10.3732 2.77337 13.1399 5.96004 13.6399V8.9732H4.26671V7.03986H5.96004V5.56653C5.96004 3.8932 6.95337 2.9732 8.48004 2.9732C9.20671 2.9732 9.96671 3.09986 9.96671 3.09986V4.74653H9.12671C8.30004 4.74653 8.04004 5.25986 8.04004 5.78653V7.03986H9.89337L9.59337 8.9732H8.04004V13.6399C9.611 13.3918 11.0415 12.5902 12.0733 11.3799C13.1051 10.1696 13.6703 8.63029 13.6667 7.03986C13.6667 3.3532 10.6667 0.359863 7.00004 0.359863Z" fill="#212A34"/>
</svg>
