<svg width="12" height="12" viewBox="0 0 12 12" fill="none" xmlns="http://www.w3.org/2000/svg">
<path d="M0.266963 4.15315C0.52944 3.34759 0.959927 2.60694 1.52996 1.98015C1.57716 1.92839 1.63862 1.89176 1.70659 1.87485C1.77456 1.85795 1.84602 1.86153 1.91196 1.88515L3.27196 2.36915C3.36857 2.40339 3.47144 2.41632 3.57352 2.40703C3.6756 2.39774 3.77445 2.36647 3.86329 2.31535C3.95213 2.26423 4.02885 2.19448 4.08817 2.1109C4.1475 2.02731 4.18802 1.93188 4.20696 1.83115L4.46696 0.415146C4.47964 0.346321 4.51244 0.2828 4.56121 0.232607C4.60998 0.182414 4.67253 0.147803 4.74096 0.133146C5.57172 -0.04308 6.43021 -0.04308 7.26096 0.133146C7.40096 0.163146 7.50896 0.274146 7.53496 0.415146L7.79496 1.83115C7.81359 1.93204 7.85392 2.02769 7.91317 2.11146C7.97242 2.19522 8.04917 2.26511 8.1381 2.31628C8.22703 2.36746 8.32602 2.39869 8.42822 2.40781C8.53041 2.41694 8.63337 2.40375 8.72996 2.36915L10.09 1.88515C10.1559 1.86153 10.2274 1.85795 10.2953 1.87485C10.3633 1.89176 10.4248 1.92839 10.472 1.98015C11.0415 2.6071 11.4717 3.34773 11.734 4.15315C11.7556 4.21975 11.7569 4.29129 11.7376 4.35863C11.7184 4.42596 11.6795 4.48603 11.626 4.53115L10.524 5.46215C10.4455 5.52813 10.3824 5.61048 10.3392 5.70342C10.2959 5.79636 10.2735 5.89763 10.2735 6.00015C10.2735 6.10266 10.2959 6.20394 10.3392 6.29687C10.3824 6.38981 10.4455 6.47216 10.524 6.53815L11.626 7.46915C11.736 7.56215 11.778 7.71115 11.734 7.84715C11.4718 8.65263 11.0417 9.39328 10.472 10.0201C10.4248 10.0719 10.3633 10.1085 10.2953 10.1254C10.2274 10.1423 10.1559 10.1388 10.09 10.1151L8.72996 9.63115C8.63336 9.5969 8.53048 9.58398 8.42841 9.59326C8.32633 9.60255 8.22748 9.63383 8.13864 9.68495C8.0498 9.73606 7.97308 9.80581 7.91375 9.88939C7.85443 9.97298 7.8139 10.0684 7.79496 10.1691L7.53496 11.5851C7.52234 11.6542 7.48943 11.7178 7.44045 11.7681C7.39147 11.8183 7.32864 11.8528 7.25996 11.8671C6.42954 12.0433 5.57139 12.0433 4.74096 11.8671C4.67235 11.8527 4.60958 11.8181 4.56062 11.7679C4.51166 11.7177 4.47871 11.6541 4.46596 11.5851L4.20696 10.1691C4.18834 10.0682 4.148 9.9726 4.08876 9.88884C4.02951 9.80507 3.95276 9.73518 3.86383 9.68401C3.7749 9.63284 3.67591 9.60161 3.57371 9.59248C3.47151 9.58335 3.36855 9.59654 3.27196 9.63115L1.91196 10.1151C1.84602 10.1388 1.77456 10.1423 1.70659 10.1254C1.63862 10.1085 1.57716 10.0719 1.52996 10.0201C0.960287 9.39326 0.530143 8.65261 0.267962 7.84715C0.246321 7.78054 0.245037 7.709 0.264276 7.64166C0.283515 7.57433 0.322401 7.51426 0.375962 7.46915L1.47796 6.53815C1.55626 6.47206 1.6192 6.38968 1.66237 6.29676C1.70554 6.20384 1.7279 6.10261 1.7279 6.00015C1.7279 5.89769 1.70554 5.79646 1.66237 5.70354C1.6192 5.61061 1.55626 5.52823 1.47796 5.46215L0.375962 4.53115C0.322401 4.48603 0.283515 4.42596 0.264276 4.35863C0.245037 4.29129 0.245321 4.21975 0.266963 4.15315ZM4.24996 6.00015C4.24996 6.46428 4.43434 6.9094 4.76253 7.23758C5.09071 7.56577 5.53583 7.75015 5.99996 7.75015C6.46409 7.75015 6.90921 7.56577 7.2374 7.23758C7.56559 6.9094 7.74996 6.46428 7.74996 6.00015C7.74996 5.53602 7.56559 5.0909 7.2374 4.76271C6.90921 4.43452 6.46409 4.25015 5.99996 4.25015C5.53583 4.25015 5.09071 4.43452 4.76253 4.76271C4.43434 5.0909 4.24996 5.53602 4.24996 6.00015Z" fill="#212A34"/>
</svg>
