<svg width="12" height="12" viewBox="0 0 12 12" fill="none" xmlns="http://www.w3.org/2000/svg">
<path d="M1.75 0C1.28587 0 0.840752 0.184375 0.512563 0.512563C0.184375 0.840752 0 1.28587 0 1.75V10.25C0 11.216 0.784 12 1.75 12H3.25C3.71413 12 4.15925 11.8156 4.48744 11.4874C4.81563 11.1592 5 10.7141 5 10.25V1.75C5 1.28587 4.81563 0.840752 4.48744 0.512563C4.15925 0.184375 3.71413 0 3.25 0H1.75ZM8.75 0C8.28587 0 7.84075 0.184375 7.51256 0.512563C7.18437 0.840752 7 1.28587 7 1.75V10.25C7 11.216 7.784 12 8.75 12H10.25C10.7141 12 11.1592 11.8156 11.4874 11.4874C11.8156 11.1592 12 10.7141 12 10.25V1.75C12 1.28587 11.8156 0.840752 11.4874 0.512563C11.1592 0.184375 10.7141 0 10.25 0H8.75Z" fill="#212A34"/>
</svg>
