<svg width="14" height="14" viewBox="0 0 14 14" fill="none" xmlns="http://www.w3.org/2000/svg">
<path d="M7 14C8.85652 14 10.637 13.2625 11.9497 11.9497C13.2625 10.637 14 8.85652 14 7C14 5.14348 13.2625 3.36301 11.9497 2.05025C10.637 0.737498 8.85652 0 7 0C5.14348 0 3.36301 0.737498 2.05025 2.05025C0.737498 3.36301 0 5.14348 0 7C0 8.85652 0.737498 10.637 2.05025 11.9497C3.36301 13.2625 5.14348 14 7 14ZM10.462 7.191C10.4373 7.25068 10.4013 7.30501 10.356 7.351L10.353 7.354L7.853 9.854C7.75911 9.94775 7.63183 10.0004 7.49915 10.0003C7.36646 10.0002 7.23925 9.94739 7.1455 9.8535C7.05175 9.75961 6.99913 9.63233 6.99922 9.49965C6.99932 9.36696 7.05211 9.23975 7.146 9.146L8.793 7.5H4C3.86739 7.5 3.74021 7.44732 3.64645 7.35355C3.55268 7.25979 3.5 7.13261 3.5 7C3.5 6.86739 3.55268 6.74021 3.64645 6.64645C3.74021 6.55268 3.86739 6.5 4 6.5H8.793L7.146 4.854C7.05211 4.76011 6.99937 4.63278 6.99937 4.5C6.99937 4.36722 7.05211 4.23989 7.146 4.146C7.23989 4.05211 7.36722 3.99937 7.5 3.99937C7.63278 3.99937 7.76011 4.05211 7.854 4.146L10.354 6.646L10.356 6.649C10.4251 6.71887 10.472 6.80758 10.4908 6.904C10.5097 7.00042 10.4996 7.10026 10.462 7.191Z" fill="#212A34"/>
</svg>
