<svg width="12" height="12" viewBox="0 0 12 12" fill="none" xmlns="http://www.w3.org/2000/svg">
<path d="M6 0C6.78793 -1.17411e-08 7.56815 0.155195 8.2961 0.456723C9.02405 0.758251 9.68549 1.20021 10.2426 1.75736C10.7998 2.31451 11.2417 2.97595 11.5433 3.7039C11.8448 4.43185 12 5.21207 12 6C12 6.78793 11.8448 7.56815 11.5433 8.2961C11.2417 9.02405 10.7998 9.68549 10.2426 10.2426C9.68549 10.7998 9.02405 11.2417 8.2961 11.5433C7.56815 11.8448 6.78793 12 6 12C4.4087 12 2.88258 11.3679 1.75736 10.2426C0.632141 9.11742 0 7.5913 0 6C0 4.4087 0.632141 2.88258 1.75736 1.75736C2.88258 0.632141 4.4087 2.37122e-08 6 0ZM4.534 3.839C4.4378 3.77232 4.32126 3.74151 4.20467 3.75192C4.08809 3.76234 3.97886 3.81332 3.896 3.896L3.839 3.966C3.77232 4.0622 3.74151 4.17874 3.75192 4.29533C3.76234 4.41191 3.81332 4.52114 3.896 4.604L5.293 6L3.896 7.396L3.839 7.466C3.77232 7.5622 3.74151 7.67874 3.75192 7.79533C3.76234 7.91191 3.81332 8.02114 3.896 8.104L3.966 8.161C4.0622 8.22768 4.17874 8.25849 4.29533 8.24808C4.41191 8.23766 4.52114 8.18668 4.604 8.104L6 6.707L7.396 8.104L7.466 8.161C7.5622 8.22768 7.67874 8.25849 7.79533 8.24808C7.91191 8.23766 8.02114 8.18668 8.104 8.104L8.161 8.034C8.22768 7.9378 8.25849 7.82126 8.24808 7.70467C8.23766 7.58809 8.18668 7.47886 8.104 7.396L6.707 6L8.104 4.604L8.161 4.534C8.22768 4.4378 8.25849 4.32126 8.24808 4.20467C8.23766 4.08809 8.18668 3.97886 8.104 3.896L8.034 3.839C7.9378 3.77232 7.82126 3.74151 7.70467 3.75192C7.58809 3.76234 7.47886 3.81332 7.396 3.896L6 5.293L4.604 3.896L4.534 3.839Z" fill="#212A34"/>
</svg>
