<svg width="14" height="14" viewBox="0 0 14 14" fill="none" xmlns="http://www.w3.org/2000/svg">
<path d="M4.20004 0.333496H9.80004C11.9334 0.333496 13.6667 2.06683 13.6667 4.20016V9.80016C13.6667 10.8257 13.2593 11.8092 12.5342 12.5343C11.809 13.2594 10.8255 13.6668 9.80004 13.6668H4.20004C2.06671 13.6668 0.333374 11.9335 0.333374 9.80016V4.20016C0.333374 3.17466 0.740754 2.19116 1.46589 1.46602C2.19104 0.740876 3.17454 0.333496 4.20004 0.333496ZM4.06671 1.66683C3.43019 1.66683 2.81974 1.91969 2.36965 2.36977C1.91956 2.81986 1.66671 3.43031 1.66671 4.06683V9.9335C1.66671 11.2602 2.74004 12.3335 4.06671 12.3335H9.93337C10.5699 12.3335 11.1803 12.0806 11.6304 11.6306C12.0805 11.1805 12.3334 10.57 12.3334 9.9335V4.06683C12.3334 2.74016 11.26 1.66683 9.93337 1.66683H4.06671ZM10.5 2.66683C10.7211 2.66683 10.933 2.75463 11.0893 2.91091C11.2456 3.06719 11.3334 3.27915 11.3334 3.50016C11.3334 3.72118 11.2456 3.93314 11.0893 4.08942C10.933 4.2457 10.7211 4.3335 10.5 4.3335C10.279 4.3335 10.0671 4.2457 9.91078 4.08942C9.7545 3.93314 9.66671 3.72118 9.66671 3.50016C9.66671 3.27915 9.7545 3.06719 9.91078 2.91091C10.0671 2.75463 10.279 2.66683 10.5 2.66683ZM7.00004 3.66683C7.8841 3.66683 8.73194 4.01802 9.35706 4.64314C9.98218 5.26826 10.3334 6.11611 10.3334 7.00016C10.3334 7.88422 9.98218 8.73206 9.35706 9.35718C8.73194 9.98231 7.8841 10.3335 7.00004 10.3335C6.11599 10.3335 5.26814 9.98231 4.64302 9.35718C4.0179 8.73206 3.66671 7.88422 3.66671 7.00016C3.66671 6.11611 4.0179 5.26826 4.64302 4.64314C5.26814 4.01802 6.11599 3.66683 7.00004 3.66683ZM7.00004 5.00016C6.46961 5.00016 5.9609 5.21088 5.58583 5.58595C5.21075 5.96102 5.00004 6.46973 5.00004 7.00016C5.00004 7.5306 5.21075 8.0393 5.58583 8.41438C5.9609 8.78945 6.46961 9.00016 7.00004 9.00016C7.53047 9.00016 8.03918 8.78945 8.41425 8.41438C8.78933 8.0393 9.00004 7.5306 9.00004 7.00016C9.00004 6.46973 8.78933 5.96102 8.41425 5.58595C8.03918 5.21088 7.53047 5.00016 7.00004 5.00016Z" fill="#212A34"/>
</svg>
