<svg width="14" height="14" viewBox="0 0 14 14" fill="none" xmlns="http://www.w3.org/2000/svg">
<path d="M7 14C5.14348 14 3.36301 13.2625 2.05025 11.9497C0.737498 10.637 0 8.85652 0 7C0 5.14348 0.737498 3.36301 2.05025 2.05025C3.36301 0.737498 5.14348 0 7 0C8.85652 0 10.637 0.737498 11.9497 2.05025C13.2625 3.36301 14 5.14348 14 7C14 8.85652 13.2625 10.637 11.9497 11.9497C10.637 13.2625 8.85652 14 7 14ZM3.538 7.191C3.562 7.249 3.598 7.304 3.644 7.351L3.647 7.354L6.147 9.854C6.19349 9.90042 6.24866 9.93723 6.30938 9.96233C6.37009 9.98743 6.43516 10.0003 6.50085 10.0003C6.56655 10.0002 6.6316 9.98725 6.69227 9.96206C6.75295 9.93688 6.80808 9.89999 6.8545 9.8535C6.90092 9.80701 6.93773 9.75184 6.96283 9.69112C6.98793 9.63041 7.00082 9.56534 7.00078 9.49965C7.00073 9.43395 6.98775 9.3689 6.96256 9.30823C6.93738 9.24755 6.90049 9.19242 6.854 9.146L5.207 7.5H10C10.1326 7.5 10.2598 7.44732 10.3536 7.35355C10.4473 7.25979 10.5 7.13261 10.5 7C10.5 6.86739 10.4473 6.74021 10.3536 6.64645C10.2598 6.55268 10.1326 6.5 10 6.5H5.207L6.854 4.854C6.94789 4.76011 7.00063 4.63278 7.00063 4.5C7.00063 4.36722 6.94789 4.23989 6.854 4.146C6.76011 4.05211 6.63278 3.99937 6.5 3.99937C6.36722 3.99937 6.23989 4.05211 6.146 4.146L3.646 6.646L3.644 6.649C3.57482 6.7188 3.52785 6.80751 3.50899 6.90396C3.49012 7.00041 3.50022 7.10028 3.538 7.191Z" fill="#212A34"/>
</svg>
