<svg width="11" height="12" viewBox="0 0 11 12" fill="none" xmlns="http://www.w3.org/2000/svg">
<path d="M2.235 0.191928C2.00679 0.0636499 1.74898 -0.00266786 1.4872 -0.00043364C1.22542 0.00180058 0.968776 0.0725091 0.742789 0.204664C0.516801 0.336818 0.329337 0.525817 0.199027 0.752873C0.0687177 0.979929 0.00010191 1.23714 5.78078e-08 1.49893V10.4989C-7.26363e-05 10.7608 0.0684162 11.0181 0.198654 11.2453C0.328892 11.4725 0.516341 11.6617 0.742357 11.7939C0.968374 11.9262 1.22508 11.997 1.48695 11.9993C1.74882 12.0016 2.00672 11.9352 2.235 11.8069L10.235 7.30693C10.467 7.17646 10.6602 6.98659 10.7946 6.75682C10.929 6.52704 10.9999 6.26563 10.9999 5.99943C10.9999 5.73322 10.929 5.47182 10.7946 5.24204C10.6602 5.01226 10.467 4.82239 10.235 4.69193L2.235 0.191928Z" fill="#212A34"/>
</svg>
