<svg width="12" height="12" viewBox="0 0 12 12" fill="none" xmlns="http://www.w3.org/2000/svg">
<path d="M5.99999 4.00004C5.46955 4.00004 4.96085 4.21075 4.58577 4.58583C4.2107 4.9609 3.99999 5.46961 3.99999 6.00004C3.99999 6.53047 4.2107 7.03918 4.58577 7.41425C4.96085 7.78933 5.46955 8.00004 5.99999 8.00004C6.53042 8.00004 7.03913 7.78933 7.4142 7.41425C7.78927 7.03918 7.99999 6.53047 7.99999 6.00004C7.99999 5.46961 7.78927 4.9609 7.4142 4.58583C7.03913 4.21075 6.53042 4.00004 5.99999 4.00004ZM4.99999 6.00004C4.99999 5.73482 5.10534 5.48047 5.29288 5.29293C5.48042 5.1054 5.73477 5.00004 5.99999 5.00004C6.2652 5.00004 6.51956 5.1054 6.70709 5.29293C6.89463 5.48047 6.99999 5.73482 6.99999 6.00004C6.99999 6.26526 6.89463 6.51961 6.70709 6.70715C6.51956 6.89468 6.2652 7.00004 5.99999 7.00004C5.73477 7.00004 5.48042 6.89468 5.29288 6.70715C5.10534 6.51961 4.99999 6.26526 4.99999 6.00004ZM8.61799 2.39804C8.43355 2.43192 8.24321 2.39125 8.08873 2.28495C7.93425 2.17865 7.82825 2.01541 7.79399 1.83104L7.53399 0.41504C7.52123 0.346083 7.48829 0.282467 7.43933 0.23226C7.39037 0.182054 7.3276 0.147521 7.25899 0.13304C6.42855 -0.0430447 5.57042 -0.0430447 4.73999 0.13304C4.67137 0.147521 4.6086 0.182054 4.55964 0.23226C4.51068 0.282467 4.47774 0.346083 4.46499 0.41504L4.20599 1.83104C4.18707 1.93189 4.14653 2.02745 4.08714 2.11112C4.02775 2.1948 3.95093 2.2646 3.86197 2.31574C3.77301 2.36687 3.67402 2.39811 3.57182 2.40732C3.46963 2.41652 3.36665 2.40346 3.26999 2.36904L1.91099 1.88504C1.84504 1.86142 1.77359 1.85784 1.70561 1.87475C1.63764 1.89165 1.57618 1.92829 1.52899 1.98004C0.959409 2.607 0.529278 3.34762 0.266986 4.15304C0.245344 4.21964 0.244061 4.29119 0.263299 4.35852C0.282538 4.42586 0.321425 4.48592 0.374986 4.53104L1.47699 5.46204C1.55529 5.52813 1.61822 5.61051 1.66139 5.70343C1.70456 5.79635 1.72692 5.89758 1.72692 6.00004C1.72692 6.1025 1.70456 6.20373 1.66139 6.29665C1.61822 6.38958 1.55529 6.47196 1.47699 6.53804L0.374986 7.46904C0.321425 7.51416 0.282538 7.57422 0.263299 7.64156C0.244061 7.70889 0.245344 7.78044 0.266986 7.84704C0.529463 8.65259 0.959951 9.39325 1.52999 10.02C1.57718 10.0718 1.63864 10.1084 1.70661 10.1253C1.77459 10.1422 1.84604 10.1387 1.91199 10.115L3.27199 9.63104C3.36864 9.59626 3.47169 9.58294 3.57401 9.59198C3.67633 9.60102 3.77545 9.63222 3.86451 9.6834C3.95356 9.73459 4.03041 9.80454 4.08972 9.8884C4.14903 9.97226 4.18939 10.068 4.20799 10.169L4.46599 11.585C4.49199 11.725 4.60099 11.837 4.74099 11.866C5.57175 12.0422 6.43022 12.0422 7.26099 11.866C7.32934 11.8516 7.39186 11.8172 7.44064 11.7671C7.48941 11.7171 7.52225 11.6537 7.53499 11.585L7.79499 10.169C7.8139 10.0682 7.85445 9.97264 7.91384 9.88896C7.97322 9.80528 8.05005 9.73548 8.13901 9.68434C8.22797 9.63321 8.32695 9.60197 8.42915 9.59276C8.53135 9.58356 8.63432 9.59662 8.73099 9.63104L10.09 10.115C10.225 10.163 10.376 10.125 10.472 10.02C11.0416 9.39308 11.4717 8.65246 11.734 7.84704C11.7556 7.78044 11.7569 7.70889 11.7377 7.64156C11.7184 7.57422 11.6795 7.51416 11.626 7.46904L10.524 6.53804C10.4455 6.47205 10.3825 6.38971 10.3392 6.29677C10.2959 6.20383 10.2735 6.10256 10.2735 6.00004C10.2735 5.89752 10.2959 5.79625 10.3392 5.70331C10.3825 5.61038 10.4455 5.52803 10.524 5.46204L11.626 4.53104C11.6795 4.48592 11.7184 4.42586 11.7377 4.35852C11.7569 4.29119 11.7556 4.21964 11.734 4.15304C11.4712 3.34739 11.0404 2.60672 10.47 1.98004C10.4228 1.92829 10.3613 1.89165 10.2934 1.87475C10.2254 1.85784 10.1539 1.86142 10.088 1.88504L8.72799 2.36904C8.69186 2.38202 8.65474 2.39206 8.61699 2.39904L8.61799 2.39804ZM1.99799 2.97804L2.93499 3.31104C3.16813 3.39404 3.41652 3.42545 3.66299 3.40309C3.90946 3.38073 4.14814 3.30514 4.36255 3.18153C4.57695 3.05793 4.76198 2.88926 4.90483 2.68717C5.04769 2.48508 5.14498 2.2544 5.18999 2.01104L5.36699 1.04104C5.78702 0.988594 6.21195 0.988594 6.63199 1.04104L6.80999 2.01104C6.85468 2.25456 6.95177 2.48546 7.09455 2.68773C7.23733 2.89 7.42238 3.05882 7.63688 3.18247C7.85138 3.30613 8.0902 3.38168 8.33679 3.40388C8.58338 3.42608 8.83185 3.3944 9.06499 3.31104L9.99999 2.97704C10.255 3.31104 10.467 3.67504 10.63 4.06104L9.87599 4.69804C9.68653 4.858 9.53427 5.05737 9.42982 5.28225C9.32537 5.50713 9.27126 5.75209 9.27126 6.00004C9.27126 6.24799 9.32537 6.49295 9.42982 6.71783C9.53427 6.94271 9.68653 7.14208 9.87599 7.30204L10.631 7.93904C10.4674 8.32542 10.2557 8.68963 10.001 9.02304L9.06399 8.68904C8.83084 8.60604 8.58245 8.57463 8.33598 8.59699C8.08951 8.61935 7.85083 8.69494 7.63642 8.81855C7.42202 8.94215 7.237 9.11082 7.09414 9.31291C6.95128 9.515 6.85399 9.74568 6.80899 9.98904L6.63099 10.959C6.21095 11.0115 5.78602 11.0115 5.36599 10.959L5.18899 9.98904C5.1443 9.74552 5.0472 9.51462 4.90442 9.31235C4.76164 9.11008 4.57659 8.94126 4.36209 8.81761C4.14759 8.69395 3.90878 8.6184 3.66218 8.5962C3.41559 8.574 3.16712 8.60568 2.93399 8.68904L1.99999 9.02304C1.74522 8.68965 1.53355 8.32544 1.36999 7.93904L2.12399 7.30104C2.31327 7.14108 2.46538 6.94176 2.56972 6.71698C2.67406 6.4922 2.72812 6.24736 2.72812 5.99954C2.72812 5.75172 2.67406 5.50689 2.56972 5.2821C2.46538 5.05732 2.31327 4.858 2.12399 4.69804L1.36899 4.06104C1.53323 3.67499 1.74486 3.31086 1.99899 2.97704L1.99799 2.97804Z" fill="#212A34"/>
</svg>
