<svg width="11" height="12" viewBox="0 0 11 12" fill="none" xmlns="http://www.w3.org/2000/svg">
<path d="M1.745 1.0639C1.66891 1.02113 1.58294 0.999025 1.49565 0.999785C1.40836 1.00054 1.32279 1.02414 1.24745 1.06823C1.17211 1.11232 1.10963 1.17537 1.06622 1.2511C1.02281 1.32683 0.999976 1.41261 1 1.4999V10.4999C0.999976 10.5872 1.02281 10.673 1.06622 10.7487C1.10963 10.8244 1.17211 10.8875 1.24745 10.9316C1.32279 10.9757 1.40836 10.9993 1.49565 11C1.58294 11.0008 1.66891 10.9787 1.745 10.9359L9.745 6.4359C9.82219 6.39237 9.88642 6.3291 9.93111 6.25257C9.97581 6.17605 9.99936 6.08902 9.99936 6.0004C9.99936 5.91179 9.97581 5.82476 9.93111 5.74823C9.88642 5.67171 9.82219 5.60844 9.745 5.5649L1.745 1.0649V1.0639ZM5.78078e-08 1.4999C0.00010191 1.23811 0.0687177 0.980906 0.199027 0.753849C0.329337 0.526793 0.516801 0.337795 0.742789 0.20564C0.968776 0.0734856 1.22542 0.00277714 1.4872 0.000542922C1.74898 -0.0016913 2.00679 0.0646266 2.235 0.192905L10.235 4.6929C10.467 4.82337 10.6602 5.01324 10.7946 5.24302C10.929 5.47279 10.9999 5.7342 10.9999 6.0004C10.9999 6.26661 10.929 6.52802 10.7946 6.75779C10.6602 6.98757 10.467 7.17744 10.235 7.3079L2.235 11.8079C2.00672 11.9362 1.74882 12.0025 1.48695 12.0003C1.22508 11.998 0.968374 11.9272 0.742357 11.7949C0.516341 11.6626 0.328892 11.4735 0.198654 11.2463C0.0684162 11.0191 -7.26363e-05 10.7618 5.78078e-08 10.4999V1.4999Z" fill="#212A34"/>
</svg>
