<?xml version="1.0" standalone="no"?>
<!DOCTYPE svg PUBLIC "-//W3C//DTD SVG 20010904//EN"
 "http://www.w3.org/TR/2001/REC-SVG-20010904/DTD/svg10.dtd">
<svg version="1.0" xmlns="http://www.w3.org/2000/svg"
 width="5154.000000pt" height="5154.000000pt" viewBox="0 0 5154.000000 5154.000000"
 preserveAspectRatio="xMidYMid meet">
<metadata>
Created by potrace 1.14, written by Peter Selinger 2001-2017
</metadata>
<g transform="translate(0.000000,5154.000000) scale(0.100000,-0.100000)"
fill="#000000" stroke="none">
<path d="M40480 30261 c-300 -65 -566 -287 -687 -574 -55 -132 -76 -256 -70
-432 8 -272 83 -455 261 -643 94 -99 172 -156 291 -213 158 -75 207 -84 435
-83 182 0 201 2 283 27 319 98 554 336 653 662 26 84 28 102 28 280 1 225 -13
296 -94 460 -120 246 -348 436 -605 506 -116 31 -375 36 -495 10z"/>
<path d="M2380 29775 c-326 -39 -596 -120 -890 -266 -661 -328 -1159 -919
-1373 -1629 -144 -475 -151 -985 -22 -1477 91 -348 267 -694 505 -993 126
-159 3767 -3796 3877 -3874 169 -118 367 -205 566 -248 147 -31 427 -31 574 0
207 45 414 137 579 259 65 48 567 544 1867 1842 978 977 1826 1829 1884 1893
136 151 234 282 329 442 319 534 442 1163 348 1791 -9 61 -18 112 -20 115 -3
2 -1190 -1181 -2639 -2630 l-2635 -2635 -1899 1900 c-1800 1801 -1902 1906
-1969 2007 -112 169 -186 345 -229 541 -26 118 -26 456 0 577 127 597 574
1044 1170 1172 139 29 406 32 552 4 129 -24 285 -76 399 -133 209 -105 207
-103 1124 -1017 l852 -851 1585 1585 c996 996 1580 1587 1572 1591 -6 4 -66
15 -132 25 -172 27 -609 27 -780 0 -481 -74 -912 -261 -1290 -560 -55 -44
-290 -268 -527 -505 l-428 -425 -427 425 c-236 234 -466 456 -513 493 -407
324 -878 521 -1386 581 -155 18 -475 18 -624 0z"/>
<path d="M48293 26528 c3 -2870 4 -3102 20 -3213 45 -311 113 -565 211 -784
276 -621 847 -1053 1586 -1201 271 -54 372 -62 918 -67 l502 -5 0 690 0 690
-447 5 c-490 6 -534 10 -710 69 -346 114 -542 399 -592 860 -7 64 -11 540 -11
1378 l0 1280 880 0 880 0 0 670 0 670 -880 0 -880 0 0 1025 0 1025 -740 0
-740 0 3 -3092z"/>
<path d="M9773 29560 c-75 -14 -152 -45 -224 -91 -47 -30 -609 -585 -2144
-2120 l-2080 -2079 -1149 1149 c-1218 1218 -1197 1199 -1335 1241 -311 97
-638 -66 -753 -376 -19 -51 -23 -79 -23 -199 1 -128 3 -146 27 -208 15 -37 43
-91 62 -120 19 -29 742 -758 1606 -1622 l1570 -1570 2524 2525 2524 2525 40
85 c48 101 62 164 62 268 -1 269 -173 500 -430 576 -68 20 -207 28 -277 16z"/>
<path d="M13475 29543 c-325 -69 -574 -307 -667 -638 l-23 -80 -3 -3697 -2
-3698 800 0 800 0 0 1710 0 1710 1790 0 1790 0 0 720 0 720 -1790 0 -1790 0 0
895 0 895 2150 0 2150 0 0 740 0 740 -2567 -1 c-2240 -1 -2577 -3 -2638 -16z"/>
<path d="M33223 25863 c2 -3483 3 -3702 20 -3763 73 -271 235 -472 472 -586
181 -87 -114 -79 2783 -82 l2572 -2 0 730 0 730 -2125 0 -2125 0 0 3335 0
3335 -800 0 -800 0 3 -3697z"/>
<path d="M21980 27723 c-870 -65 -1586 -390 -2139 -969 -478 -500 -748 -1082
-838 -1804 -25 -203 -25 -729 1 -945 100 -858 415 -1487 991 -1983 392 -337
825 -563 1295 -677 272 -65 618 -94 904 -76 381 25 654 92 953 236 446 215
780 535 990 951 32 63 64 114 71 114 9 0 12 -121 12 -570 l0 -570 675 0 675 0
0 1613 c0 1031 -4 1662 -10 1748 -64 812 -344 1471 -850 1993 -541 560 -1218
865 -2073 935 -116 10 -547 12 -657 4z m538 -1384 c221 -24 451 -88 624 -174
288 -143 559 -404 716 -688 215 -389 287 -926 191 -1427 -114 -590 -508 -1072
-1048 -1281 -365 -141 -856 -162 -1259 -54 -479 129 -880 466 -1093 919 -155
331 -213 780 -154 1193 67 472 285 864 640 1150 243 195 563 324 905 362 110
12 366 13 478 0z"/>
<path d="M44670 27723 c-108 -8 -315 -36 -430 -60 -861 -173 -1508 -743 -1675
-1476 -44 -191 -59 -512 -34 -735 53 -496 291 -904 667 -1146 97 -63 198 -108
372 -166 297 -99 428 -126 1130 -230 578 -86 712 -111 880 -166 249 -82 382
-173 444 -304 30 -62 31 -71 30 -185 -1 -101 -5 -133 -27 -200 -87 -263 -316
-414 -727 -477 -115 -18 -566 -18 -680 0 -147 24 -271 60 -378 113 -180 87
-289 219 -337 404 -8 32 -15 79 -15 102 l0 43 -751 0 -751 0 7 -72 c32 -358
107 -594 270 -857 149 -239 406 -486 679 -650 445 -269 965 -394 1636 -394
587 0 1020 88 1435 293 264 130 454 267 646 467 264 277 422 597 474 966 19
136 19 462 0 609 -49 373 -180 660 -418 914 -194 207 -426 329 -837 442 -211
58 -345 83 -923 172 -552 85 -691 112 -857 167 -331 109 -477 241 -488 441 -5
96 16 199 59 289 45 96 175 223 284 280 153 78 324 119 550 130 327 15 611
-57 802 -203 123 -94 198 -211 230 -356 l16 -78 735 0 734 0 -7 83 c-3 45 -13
125 -21 177 -129 842 -878 1494 -1879 1634 -198 28 -326 36 -565 34 -129 -1
-255 -3 -280 -5z"/>
<path d="M25829 27548 c17 -44 2353 -5994 2378 -6055 l25 -63 892 0 893 0 30
78 c17 42 558 1420 1203 3062 645 1642 1174 2988 1177 2993 2 4 -353 7 -789 7
l-793 0 -845 -2375 c-465 -1306 -850 -2375 -856 -2375 -7 0 -37 71 -68 158
-31 86 -411 1154 -845 2372 l-789 2215 -811 3 -811 2 9 -22z"/>
<path d="M39970 24500 l0 -3070 740 0 740 0 0 3070 0 3070 -740 0 -740 0 0
-3070z"/>
</g>
</svg>
