<svg width="14" height="14" viewBox="0 0 14 14" fill="none" xmlns="http://www.w3.org/2000/svg">
<path d="M7.854 9.854L10.354 7.354C10.4006 7.30755 10.4375 7.25238 10.4627 7.19163C10.4879 7.13089 10.5009 7.06577 10.5009 7C10.5009 6.93423 10.4879 6.86911 10.4627 6.80837C10.4375 6.74762 10.4006 6.69245 10.354 6.646L7.854 4.146C7.80751 4.09951 7.75232 4.06264 7.69158 4.03748C7.63084 4.01232 7.56574 3.99937 7.5 3.99937C7.43426 3.99937 7.36916 4.01232 7.30842 4.03748C7.24768 4.06264 7.19249 4.09951 7.146 4.146C7.09951 4.19249 7.06264 4.24768 7.03748 4.30842C7.01232 4.36916 6.99937 4.43426 6.99937 4.5C6.99937 4.56574 7.01232 4.63084 7.03748 4.69158C7.06264 4.75232 7.09951 4.80751 7.146 4.854L8.793 6.5H4C3.86739 6.5 3.74021 6.55268 3.64645 6.64645C3.55268 6.74021 3.5 6.86739 3.5 7C3.5 7.13261 3.55268 7.25979 3.64645 7.35355C3.74021 7.44732 3.86739 7.5 4 7.5H8.793L7.146 9.146C7.05211 9.23989 6.99937 9.36722 6.99937 9.5C6.99937 9.63278 7.05211 9.76011 7.146 9.854C7.23989 9.94789 7.36722 10.0006 7.5 10.0006C7.63278 10.0006 7.76011 9.94789 7.854 9.854ZM14 7C14 8.85652 13.2625 10.637 11.9497 11.9497C10.637 13.2625 8.85652 14 7 14C5.14348 14 3.36301 13.2625 2.05025 11.9497C0.737498 10.637 0 8.85652 0 7C0 5.14348 0.737498 3.36301 2.05025 2.05025C3.36301 0.737498 5.14348 0 7 0C8.85652 0 10.637 0.737498 11.9497 2.05025C13.2625 3.36301 14 5.14348 14 7ZM7 13C7.78793 13 8.56815 12.8448 9.2961 12.5433C10.0241 12.2417 10.6855 11.7998 11.2426 11.2426C11.7998 10.6855 12.2417 10.0241 12.5433 9.2961C12.8448 8.56815 13 7.78793 13 7C13 6.21207 12.8448 5.43185 12.5433 4.7039C12.2417 3.97595 11.7998 3.31451 11.2426 2.75736C10.6855 2.20021 10.0241 1.75825 9.2961 1.45672C8.56815 1.15519 7.78793 1 7 1C5.4087 1 3.88258 1.63214 2.75736 2.75736C1.63214 3.88258 1 5.4087 1 7C1 8.5913 1.63214 10.1174 2.75736 11.2426C3.88258 12.3679 5.4087 13 7 13Z" fill="#312134"/>
</svg>
