<svg width="24" height="24" viewBox="0 0 24 24" fill="none" xmlns="http://www.w3.org/2000/svg">
<rect width="24" height="24" rx="12" fill="#FFCC00"/>
<g clip-path="url(#clip0_255_5271)">
<path d="M0.480469 13.0615H3.59087L3.42095 13.2952H0.480469V13.0615Z" fill="#D40511"/>
<path d="M0.480469 12.6284H3.90688L3.73661 12.8616H0.480469V12.6284Z" fill="#D40511"/>
<path d="M0.480469 13.4956H3.27509L3.10587 13.7276H0.480469V13.4956Z" fill="#D40511"/>
<path d="M23.4804 13.2954H20.3822L20.552 13.062H23.4804V13.2954Z" fill="#D40511"/>
<path d="M23.4804 13.7276L20.0671 13.7278L20.2362 13.4956H23.4804V13.7276Z" fill="#D40511"/>
<path d="M20.8677 12.6284H23.4804V12.8618L20.6978 12.8619L20.8677 12.6284Z" fill="#D40511"/>
<path d="M3.49304 13.7274L4.96902 11.7017H6.80059C7.00304 11.7017 7.00039 11.7793 6.90151 11.9147C6.80104 12.0522 6.63005 12.2887 6.52772 12.4283C6.47578 12.4992 6.38184 12.6284 6.69305 12.6284H9.14677C8.9427 12.9108 8.28075 13.7274 7.09224 13.7274H3.49304Z" fill="#D40511"/>
<path d="M11.9459 12.6284L11.1456 13.7276H9.03418C9.03418 13.7276 9.83416 12.6286 9.83487 12.6286L11.9459 12.6284Z" fill="#D40511"/>
<path d="M14.9991 12.6284L14.1983 13.7274H12.0878C12.0878 13.7274 12.8878 12.6284 12.8885 12.6284H14.9991Z" fill="#D40511"/>
<path d="M15.6857 12.6285C15.6857 12.6285 15.5314 12.8416 15.4565 12.9438C15.1914 13.3058 15.4257 13.7274 16.2909 13.7274H19.6805L20.4812 12.6284L15.6857 12.6285Z" fill="#D40511"/>
<path d="M4.52524 10.4419L3.79041 11.4504H7.79533C7.99774 11.4504 7.99509 11.5281 7.89615 11.6635C7.79568 11.8008 7.6275 12.04 7.52517 12.1796C7.47322 12.2504 7.37929 12.3795 7.6905 12.3795H9.32824C9.32824 12.3795 9.59227 12.0166 9.8135 11.7133C10.1145 11.3006 9.83961 10.4419 8.7634 10.4419H4.52524Z" fill="#D40511"/>
<path d="M15.1804 12.3795H10.0164L11.4285 10.4419H13.5391L12.7299 11.5528H13.6719L14.4818 10.4419H16.5921L15.1804 12.3795Z" fill="#D40511"/>
<path d="M19.5151 10.4419L18.1032 12.3795H15.8667C15.8667 12.3795 17.279 10.4419 17.2797 10.4419H19.5151Z" fill="#D40511"/>
</g>
<defs>
<clipPath id="clip0_255_5271">
<rect width="23" height="3.28571" fill="white" transform="translate(0.480469 10.4419)"/>
</clipPath>
</defs>
</svg>
