<svg width="24" height="24" viewBox="0 0 24 24" fill="none" xmlns="http://www.w3.org/2000/svg">
<path d="M5.00003 19.824C3.29603 18.432 2.38403 16.416 2.38403 14.016V2.61598C5.09603 1.19998 8.33603 0.47998 12.08 0.47998C15.824 0.47998 19.064 1.19998 21.776 2.63998V14.04C21.776 16.44 20.864 18.456 19.16 19.848C17.6 21.096 12.656 23.28 12.08 23.52C11.504 23.28 6.56003 21.096 5.00003 19.824Z" fill="#330000"/>
<path d="M21.248 2.496C20 2.376 18.704 2.304 17.384 2.304C12.488 2.304 7.256 3.36 2.936 7.32V14.112C2.936 16.32 3.752 18.168 5.312 19.44C6.68 20.544 10.904 22.464 12.104 22.992C13.28 22.464 17.48 20.592 18.896 19.44C20.456 18.144 21.272 16.344 21.272 14.112V2.496M3.824 13.392V7.872H5.576V13.464C5.576 13.968 5.696 14.688 6.512 14.688C6.8 14.688 7.088 14.616 7.352 14.472V7.896H9.104V15.504C8.312 16.008 7.4 16.248 6.464 16.2C4.712 16.2 3.824 15.264 3.824 13.392ZM11.744 19.776H9.992V8.328C10.712 7.896 11.528 7.68 12.368 7.704C14.456 7.704 15.608 9.288 15.608 11.856C15.608 14.424 14.48 16.176 12.536 16.176C12.272 16.176 12.008 16.152 11.744 16.08V19.776ZM11.744 14.64C11.936 14.712 12.128 14.736 12.32 14.736C13.328 14.736 13.808 13.8 13.808 11.88C13.808 9.912 13.376 9.096 12.368 9.096C12.152 9.096 11.936 9.144 11.744 9.216V14.64ZM15.992 10.008C16.016 8.736 17.072 7.704 18.344 7.728C19.04 7.68 19.712 7.896 20.264 8.304V9.84C19.856 9.408 19.28 9.144 18.704 9.12C18.2 9.12 17.696 9.336 17.672 9.96C17.648 10.608 18.176 10.848 18.824 11.232C20.288 12.096 20.576 12.864 20.528 13.896C20.504 15.024 19.712 16.248 17.984 16.248C17.312 16.248 16.64 16.056 16.064 15.696V14.088C16.52 14.496 17.12 14.76 17.744 14.808C18.392 14.808 18.8 14.448 18.8 13.824C18.776 13.272 18.464 12.984 17.696 12.528C16.256 11.616 15.992 10.92 15.992 10.008ZM4.712 20.136C2.936 18.696 2 16.608 2 14.112V2.232C4.808 0.744 8.192 0 12.08 0C15.968 0 19.352 0.744 22.16 2.232V14.112C22.16 16.608 21.224 18.696 19.448 20.16C17.816 21.48 12.68 23.76 12.08 24C11.48 23.736 6.344 21.48 4.712 20.136ZM18.512 22.632V23.664H18.704V23.232H18.728C18.752 23.256 19.016 23.664 19.016 23.664H19.232C19.232 23.664 18.944 23.256 18.92 23.208C19.064 23.184 19.16 23.064 19.16 22.944C19.16 22.752 18.992 22.608 18.824 22.632H18.512ZM18.8 22.776C18.968 22.776 18.992 22.848 18.992 22.92C18.992 23.016 18.944 23.088 18.752 23.088H18.728V22.776H18.8ZM19.52 23.16C19.52 23.784 18.776 24.096 18.32 23.64C17.864 23.184 18.2 22.44 18.824 22.44C19.208 22.464 19.52 22.776 19.52 23.16ZM18.824 22.296C18.08 22.296 17.696 23.208 18.224 23.736C18.752 24.264 19.664 23.904 19.664 23.136C19.664 22.68 19.28 22.296 18.824 22.296Z" fill="#FFBE00"/>
</svg>
