<svg width="16" height="16" viewBox="0 0 16 16" fill="none" xmlns="http://www.w3.org/2000/svg">
<path d="M7.146 10.854L4.646 8.354C4.59944 8.30755 4.56249 8.25238 4.53729 8.19163C4.51208 8.13089 4.49911 8.06577 4.49911 8C4.49911 7.93423 4.51208 7.86911 4.53729 7.80837C4.56249 7.74762 4.59944 7.69245 4.646 7.646L7.146 5.146C7.23989 5.05211 7.36722 4.99937 7.5 4.99937C7.63278 4.99937 7.76011 5.05211 7.854 5.146C7.94789 5.23989 8.00063 5.36722 8.00063 5.5C8.00063 5.63278 7.94789 5.76011 7.854 5.854L6.207 7.5H11C11.1326 7.5 11.2598 7.55268 11.3536 7.64645C11.4473 7.74021 11.5 7.86739 11.5 8C11.5 8.13261 11.4473 8.25979 11.3536 8.35355C11.2598 8.44732 11.1326 8.5 11 8.5H6.207L7.854 10.146C7.94789 10.2399 8.00063 10.3672 8.00063 10.5C8.00063 10.6328 7.94789 10.7601 7.854 10.854C7.76011 10.9479 7.63278 11.0006 7.5 11.0006C7.36722 11.0006 7.23989 10.9479 7.146 10.854ZM1 8C1 9.85652 1.7375 11.637 3.05025 12.9497C4.36301 14.2625 6.14348 15 8 15C9.85652 15 11.637 14.2625 12.9497 12.9497C14.2625 11.637 15 9.85652 15 8C15 6.14348 14.2625 4.36301 12.9497 3.05025C11.637 1.7375 9.85652 1 8 1C6.14348 1 4.36301 1.7375 3.05025 3.05025C1.7375 4.36301 1 6.14348 1 8ZM8 14C7.21207 14 6.43185 13.8448 5.7039 13.5433C4.97595 13.2417 4.31451 12.7998 3.75736 12.2426C3.20021 11.6855 2.75825 11.0241 2.45672 10.2961C2.15519 9.56815 2 8.78793 2 8C2 7.21207 2.15519 6.43185 2.45672 5.7039C2.75825 4.97595 3.20021 4.31451 3.75736 3.75736C4.31451 3.20021 4.97595 2.75825 5.7039 2.45672C6.43185 2.15519 7.21207 2 8 2C9.5913 2 11.1174 2.63214 12.2426 3.75736C13.3679 4.88258 14 6.4087 14 8C14 9.5913 13.3679 11.1174 12.2426 12.2426C11.1174 13.3679 9.5913 14 8 14Z" fill="#312134"/>
</svg>
