<svg width="16" height="16" viewBox="0 0 16 16" fill="none" xmlns="http://www.w3.org/2000/svg">
<path d="M8 2C8.78793 2 9.56815 2.15519 10.2961 2.45672C11.0241 2.75825 11.6855 3.20021 12.2426 3.75736C12.7998 4.31451 13.2417 4.97595 13.5433 5.7039C13.8448 6.43185 14 7.21207 14 8C14 8.78793 13.8448 9.56815 13.5433 10.2961C13.2417 11.0241 12.7998 11.6855 12.2426 12.2426C11.6855 12.7998 11.0241 13.2417 10.2961 13.5433C9.56815 13.8448 8.78793 14 8 14C6.4087 14 4.88258 13.3679 3.75736 12.2426C2.63214 11.1174 2 9.5913 2 8C2 6.4087 2.63214 4.88258 3.75736 3.75736C4.88258 2.63214 6.4087 2 8 2ZM8 3C6.67392 3 5.40215 3.52678 4.46447 4.46447C3.52678 5.40215 3 6.67392 3 8C3 9.32608 3.52678 10.5979 4.46447 11.5355C5.40215 12.4732 6.67392 13 8 13C9.32608 13 10.5979 12.4732 11.5355 11.5355C12.4732 10.5979 13 9.32608 13 8C13 6.67392 12.4732 5.40215 11.5355 4.46447C10.5979 3.52678 9.32608 3 8 3ZM7.502 5C7.61885 5.00019 7.73195 5.04131 7.82164 5.11621C7.91134 5.19111 7.97197 5.29505 7.993 5.41L8.002 5.5V8H9.5C9.62495 7.99977 9.74545 8.04633 9.83778 8.13051C9.93012 8.21469 9.98759 8.33039 9.99888 8.45482C10.0102 8.57926 9.97446 8.70341 9.89878 8.80283C9.8231 8.90225 9.71295 8.96974 9.59 8.992L9.5 9H7.502C7.38497 9.00004 7.27164 8.95903 7.18174 8.88411C7.09184 8.80919 7.03106 8.70511 7.01 8.59L7.002 8.5V5.5C7.002 5.36739 7.05468 5.24021 7.14845 5.14645C7.24221 5.05268 7.36939 5 7.502 5Z" fill="#312134"/>
</svg>
