<svg width="16" height="16" viewBox="0 0 16 16" fill="none" xmlns="http://www.w3.org/2000/svg">
<path d="M8 2C8.78793 2 9.56815 2.15519 10.2961 2.45672C11.0241 2.75825 11.6855 3.20021 12.2426 3.75736C12.7998 4.31451 13.2417 4.97595 13.5433 5.7039C13.8448 6.43185 14 7.21207 14 8C14 8.78793 13.8448 9.56815 13.5433 10.2961C13.2417 11.0241 12.7998 11.6855 12.2426 12.2426C11.6855 12.7998 11.0241 13.2417 10.2961 13.5433C9.56815 13.8448 8.78793 14 8 14C6.4087 14 4.88258 13.3679 3.75736 12.2426C2.63214 11.1174 2 9.5913 2 8C2 6.4087 2.63214 4.88258 3.75736 3.75736C4.88258 2.63214 6.4087 2 8 2ZM8 3C6.67392 3 5.40215 3.52678 4.46447 4.46447C3.52678 5.40215 3 6.67392 3 8C3 9.32608 3.52678 10.5979 4.46447 11.5355C5.40215 12.4732 6.67392 13 8 13C9.32608 13 10.5979 12.4732 11.5355 11.5355C12.4732 10.5979 13 9.32608 13 8C13 6.67392 12.4732 5.40215 11.5355 4.46447C10.5979 3.52678 9.32608 3 8 3ZM5.839 5.966L5.896 5.896C5.97886 5.81332 6.08809 5.76234 6.20467 5.75192C6.32126 5.74151 6.4378 5.77232 6.534 5.839L6.604 5.896L8 7.293L9.396 5.896C9.47886 5.81332 9.58809 5.76234 9.70467 5.75192C9.82126 5.74151 9.9378 5.77232 10.034 5.839L10.104 5.896C10.1867 5.97886 10.2377 6.08809 10.2481 6.20467C10.2585 6.32126 10.2277 6.4378 10.161 6.534L10.104 6.604L8.707 8L10.104 9.396C10.1867 9.47886 10.2377 9.58809 10.2481 9.70467C10.2585 9.82126 10.2277 9.9378 10.161 10.034L10.104 10.104C10.0211 10.1867 9.91191 10.2377 9.79533 10.2481C9.67874 10.2585 9.5622 10.2277 9.466 10.161L9.396 10.104L8 8.707L6.604 10.104C6.52114 10.1867 6.41191 10.2377 6.29533 10.2481C6.17874 10.2585 6.0622 10.2277 5.966 10.161L5.896 10.104C5.81332 10.0211 5.76234 9.91191 5.75192 9.79533C5.74151 9.67874 5.77232 9.5622 5.839 9.466L5.896 9.396L7.293 8L5.896 6.604C5.81332 6.52114 5.76234 6.41191 5.75192 6.29533C5.74151 6.17874 5.77232 6.0622 5.839 5.966Z" fill="#312134"/>
</svg>
