<svg width="16" height="16" viewBox="0 0 16 16" fill="none" xmlns="http://www.w3.org/2000/svg">
<path d="M11.3333 0.666504H4.66663C3.9333 0.666504 3.33997 1.2665 3.33997 1.99984V13.9998C3.33997 14.7332 3.9333 15.3332 4.66663 15.3332H11.3333C12.0666 15.3332 12.6666 14.7332 12.6666 13.9998V1.99984C12.6666 1.2665 12.0666 0.666504 11.3333 0.666504ZM11.3333 12.6665H4.66663V3.33317H11.3333V12.6665ZM8.5333 8.81317V9.97984L10.4066 8.23317C10.5466 8.09984 10.5466 7.87984 10.4066 7.7465L8.5333 5.99984V7.13317C6.45997 7.41984 5.6333 8.83984 5.3333 10.2665C6.0733 9.2665 7.0533 8.81317 8.5333 8.81317Z" fill="#312134"/>
</svg>
