<svg width="16" height="16" viewBox="0 0 16 16" fill="none" xmlns="http://www.w3.org/2000/svg">
<path d="M8.00004 1.35986C4.33337 1.35986 1.33337 4.3532 1.33337 8.03986C1.33337 11.3732 3.77337 14.1399 6.96004 14.6399V9.9732H5.26671V8.03986H6.96004V6.56653C6.96004 4.8932 7.95337 3.9732 9.48004 3.9732C10.2067 3.9732 10.9667 4.09986 10.9667 4.09986V5.74653H10.1267C9.30004 5.74653 9.04004 6.25986 9.04004 6.78653V8.03986H10.8934L10.5934 9.9732H9.04004V14.6399C10.611 14.3918 12.0415 13.5902 13.0733 12.3799C14.1051 11.1696 14.6703 9.63029 14.6667 8.03986C14.6667 4.3532 11.6667 1.35986 8.00004 1.35986Z" fill="#312134"/>
</svg>
