<svg width="16" height="16" viewBox="0 0 16 16" fill="none" xmlns="http://www.w3.org/2000/svg">
<path d="M3.5 3C2.83696 3 2.20107 3.26339 1.73223 3.73223C1.26339 4.20107 1 4.83696 1 5.5V10.5C1 11.163 1.26339 11.7989 1.73223 12.2678C2.20107 12.7366 2.83696 13 3.5 13H12.5C13.163 13 13.7989 12.7366 14.2678 12.2678C14.7366 11.7989 15 11.163 15 10.5V5.5C15 4.83696 14.7366 4.20107 14.2678 3.73223C13.7989 3.26339 13.163 3 12.5 3H3.5ZM12.5 5C12.6326 5 12.7598 5.05268 12.8536 5.14645C12.9473 5.24021 13 5.36739 13 5.5V6.5C13 6.63261 12.9473 6.75979 12.8536 6.85355C12.7598 6.94732 12.6326 7 12.5 7C12.3674 7 12.2402 6.94732 12.1464 6.85355C12.0527 6.75979 12 6.63261 12 6.5V5.5C12 5.36739 12.0527 5.24021 12.1464 5.14645C12.2402 5.05268 12.3674 5 12.5 5ZM12 9.5C12 9.36739 12.0527 9.24021 12.1464 9.14645C12.2402 9.05268 12.3674 9 12.5 9C12.6326 9 12.7598 9.05268 12.8536 9.14645C12.9473 9.24021 13 9.36739 13 9.5V10.5C13 10.6326 12.9473 10.7598 12.8536 10.8536C12.7598 10.9473 12.6326 11 12.5 11C12.3674 11 12.2402 10.9473 12.1464 10.8536C12.0527 10.7598 12 10.6326 12 10.5V9.5ZM3.5 5C3.63261 5 3.75979 5.05268 3.85355 5.14645C3.94732 5.24021 4 5.36739 4 5.5V6.5C4 6.63261 3.94732 6.75979 3.85355 6.85355C3.75979 6.94732 3.63261 7 3.5 7C3.36739 7 3.24021 6.94732 3.14645 6.85355C3.05268 6.75979 3 6.63261 3 6.5V5.5C3 5.36739 3.05268 5.24021 3.14645 5.14645C3.24021 5.05268 3.36739 5 3.5 5ZM3 9.5C3 9.36739 3.05268 9.24021 3.14645 9.14645C3.24021 9.05268 3.36739 9 3.5 9C3.63261 9 3.75979 9.05268 3.85355 9.14645C3.94732 9.24021 4 9.36739 4 9.5V10.5C4 10.6326 3.94732 10.7598 3.85355 10.8536C3.75979 10.9473 3.63261 11 3.5 11C3.36739 11 3.24021 10.9473 3.14645 10.8536C3.05268 10.7598 3 10.6326 3 10.5V9.5ZM7 6.5C7 6.115 7.346 5.874 7.62 6.07L9.826 7.63C10.059 7.795 10.059 8.203 9.826 8.368L7.621 9.93C7.346 10.126 7 9.885 7 9.499V6.5Z" fill="#312134"/>
</svg>
