<svg width="16" height="16" viewBox="0 0 16 16" fill="none" xmlns="http://www.w3.org/2000/svg">
<path d="M14 11.5V6H2V11.5C2 12.163 2.26339 12.7989 2.73223 13.2678C3.20107 13.7366 3.83696 14 4.5 14H11.5C12.163 14 12.7989 13.7366 13.2678 13.2678C13.7366 12.7989 14 12.163 14 11.5ZM5.997 8.248C5.997 8.44651 5.91814 8.6369 5.77777 8.77727C5.6374 8.91764 5.44701 8.9965 5.2485 8.9965C5.04999 8.9965 4.8596 8.91764 4.71923 8.77727C4.57886 8.6369 4.5 8.44651 4.5 8.248C4.5 8.04949 4.57886 7.8591 4.71923 7.71873C4.8596 7.57836 5.04999 7.4995 5.2485 7.4995C5.44701 7.4995 5.6374 7.57836 5.77777 7.71873C5.91814 7.8591 5.997 8.04949 5.997 8.248ZM5.997 10.748C5.997 10.9465 5.91814 11.1369 5.77777 11.2773C5.6374 11.4176 5.44701 11.4965 5.2485 11.4965C5.04999 11.4965 4.8596 11.4176 4.71923 11.2773C4.57886 11.1369 4.5 10.9465 4.5 10.748C4.5 10.5495 4.57886 10.3591 4.71923 10.2187C4.8596 10.0784 5.04999 9.9995 5.2485 9.9995C5.44701 9.9995 5.6374 10.0784 5.77777 10.2187C5.91814 10.3591 5.997 10.5495 5.997 10.748ZM8.749 8.248C8.749 8.44651 8.67014 8.6369 8.52977 8.77727C8.3894 8.91764 8.19901 8.9965 8.0005 8.9965C7.80199 8.9965 7.6116 8.91764 7.47123 8.77727C7.33086 8.6369 7.252 8.44651 7.252 8.248C7.252 8.04949 7.33086 7.8591 7.47123 7.71873C7.6116 7.57836 7.80199 7.4995 8.0005 7.4995C8.19901 7.4995 8.3894 7.57836 8.52977 7.71873C8.67014 7.8591 8.749 8.04949 8.749 8.248ZM8.749 10.748C8.749 10.9465 8.67014 11.1369 8.52977 11.2773C8.3894 11.4176 8.19901 11.4965 8.0005 11.4965C7.80199 11.4965 7.6116 11.4176 7.47123 11.2773C7.33086 11.1369 7.252 10.9465 7.252 10.748C7.252 10.5495 7.33086 10.3591 7.47123 10.2187C7.6116 10.0784 7.80199 9.9995 8.0005 9.9995C8.19901 9.9995 8.3894 10.0784 8.52977 10.2187C8.67014 10.3591 8.749 10.5495 8.749 10.748ZM11.497 8.248C11.497 8.44651 11.4181 8.6369 11.2778 8.77727C11.1374 8.91764 10.947 8.9965 10.7485 8.9965C10.55 8.9965 10.3596 8.91764 10.2192 8.77727C10.0789 8.6369 10 8.44651 10 8.248C10 8.04949 10.0789 7.8591 10.2192 7.71873C10.3596 7.57836 10.55 7.4995 10.7485 7.4995C10.947 7.4995 11.1374 7.57836 11.2778 7.71873C11.4181 7.8591 11.497 8.04949 11.497 8.248ZM14 4.5C14 3.83696 13.7366 3.20107 13.2678 2.73223C12.7989 2.26339 12.163 2 11.5 2H4.5C3.83696 2 3.20107 2.26339 2.73223 2.73223C2.26339 3.20107 2 3.83696 2 4.5V5H14V4.5Z" fill="#312134"/>
</svg>
