<svg width="16" height="16" viewBox="0 0 16 16" fill="none" xmlns="http://www.w3.org/2000/svg">
<path d="M8.687 1.26211C8.50133 1.08658 8.25551 0.98877 8 0.98877C7.74449 0.98877 7.49867 1.08658 7.313 1.26211L2.469 5.84011C2.32068 5.98046 2.20258 6.14962 2.12194 6.33722C2.04129 6.52482 1.9998 6.72691 2 6.93111V12.5011C2.00027 12.8988 2.15842 13.28 2.43969 13.5611C2.72097 13.8422 3.10235 14.0001 3.5 14.0001H5C5.39783 14.0001 5.77936 13.8421 6.06066 13.5608C6.34197 13.2795 6.5 12.8979 6.5 12.5001V10.0001C6.5 9.8675 6.55268 9.74033 6.64645 9.64656C6.74022 9.55279 6.86739 9.50011 7 9.50011H9C9.13261 9.50011 9.25979 9.55279 9.35355 9.64656C9.44732 9.74033 9.5 9.8675 9.5 10.0001V12.5001C9.5 12.8979 9.65804 13.2795 9.93934 13.5608C10.2206 13.8421 10.6022 14.0001 11 14.0001H12.5C12.8978 14.0001 13.2794 13.8421 13.5607 13.5608C13.842 13.2795 14 12.8979 14 12.5001V6.93011C13.9999 6.72601 13.9582 6.52407 13.8774 6.33664C13.7966 6.14922 13.6784 5.98026 13.53 5.84011L8.687 1.26011V1.26211Z" fill="#312134"/>
</svg>
