<svg width="16" height="16" viewBox="0 0 16 16" fill="none" xmlns="http://www.w3.org/2000/svg">
<path d="M8 15C9.85652 15 11.637 14.2625 12.9497 12.9497C14.2625 11.637 15 9.85652 15 8C15 6.14348 14.2625 4.36301 12.9497 3.05025C11.637 1.7375 9.85652 1 8 1C6.14348 1 4.36301 1.7375 3.05025 3.05025C1.7375 4.36301 1 6.14348 1 8C1 9.85652 1.7375 11.637 3.05025 12.9497C4.36301 14.2625 6.14348 15 8 15ZM11.462 8.191C11.4373 8.25068 11.4013 8.30501 11.356 8.351L11.353 8.354L8.853 10.854C8.75911 10.9478 8.63183 11.0004 8.49915 11.0003C8.36646 11.0002 8.23925 10.9474 8.1455 10.8535C8.05175 10.7596 7.99913 10.6323 7.99922 10.4996C7.99932 10.367 8.05211 10.2398 8.146 10.146L9.793 8.5H5C4.86739 8.5 4.74021 8.44732 4.64645 8.35355C4.55268 8.25979 4.5 8.13261 4.5 8C4.5 7.86739 4.55268 7.74021 4.64645 7.64645C4.74021 7.55268 4.86739 7.5 5 7.5H9.793L8.146 5.854C8.05211 5.76011 7.99937 5.63278 7.99937 5.5C7.99937 5.36722 8.05211 5.23989 8.146 5.146C8.23989 5.05211 8.36722 4.99937 8.5 4.99937C8.63278 4.99937 8.76011 5.05211 8.854 5.146L11.354 7.646L11.356 7.649C11.4251 7.71887 11.472 7.80758 11.4908 7.904C11.5097 8.00042 11.4996 8.10026 11.462 8.191Z" fill="#312134"/>
</svg>
