<svg width="16" height="16" viewBox="0 0 16 16" fill="none" xmlns="http://www.w3.org/2000/svg">
<path d="M8 5.5C8 6.16304 7.73661 6.79893 7.26777 7.26777C6.79893 7.73661 6.16304 8 5.5 8C4.83696 8 4.20107 7.73661 3.73223 7.26777C3.26339 6.79893 3 6.16304 3 5.5C3 4.83696 3.26339 4.20107 3.73223 3.73223C4.20107 3.26339 4.83696 3 5.5 3C6.16304 3 6.79893 3.26339 7.26777 3.73223C7.73661 4.20107 8 4.83696 8 5.5ZM11.5 8C12.0304 8 12.5391 7.78929 12.9142 7.41421C13.2893 7.03914 13.5 6.53043 13.5 6C13.5 5.46957 13.2893 4.96086 12.9142 4.58579C12.5391 4.21071 12.0304 4 11.5 4C10.9696 4 10.4609 4.21071 10.0858 4.58579C9.71071 4.96086 9.5 5.46957 9.5 6C9.5 6.53043 9.71071 7.03914 10.0858 7.41421C10.4609 7.78929 10.9696 8 11.5 8ZM10.5 10.594V10.5C10.5007 9.95896 10.3252 9.4324 10 9H13.273C13.949 9 14.498 9.548 14.498 10.225C14.498 10.225 14.498 12.5 11.498 12.5C10.9 12.5 10.421 12.41 10.038 12.265C10.2769 11.8273 10.4287 11.3475 10.485 10.852C10.491 10.79 10.495 10.737 10.497 10.693L10.5 10.594ZM9.5 10.5C9.5 10.1022 9.34196 9.72064 9.06066 9.43934C8.77936 9.15804 8.39782 9 8 9H3C2.60218 9 2.22064 9.15804 1.93934 9.43934C1.65804 9.72064 1.5 10.1022 1.5 10.5V10.575C1.5 10.575 1.5 13.5 5.5 13.5C9.312 13.5 9.491 10.844 9.5 10.594V10.5Z" fill="#312134"/>
</svg>
