<svg width="16" height="16" viewBox="0 0 16 16" fill="none" xmlns="http://www.w3.org/2000/svg">
<path d="M2.26696 6.15315C2.52944 5.34759 2.95993 4.60694 3.52996 3.98015C3.57716 3.92839 3.63862 3.89176 3.70659 3.87485C3.77456 3.85795 3.84602 3.86153 3.91196 3.88515L5.27196 4.36915C5.36857 4.40339 5.47144 4.41632 5.57352 4.40703C5.6756 4.39774 5.77445 4.36647 5.86329 4.31535C5.95213 4.26423 6.02885 4.19448 6.08817 4.1109C6.1475 4.02731 6.18802 3.93188 6.20696 3.83115L6.46696 2.41515C6.47964 2.34632 6.51244 2.2828 6.56121 2.23261C6.60998 2.18241 6.67253 2.1478 6.74096 2.13315C7.57172 1.95692 8.43021 1.95692 9.26096 2.13315C9.40096 2.16315 9.50896 2.27415 9.53496 2.41515L9.79496 3.83115C9.81359 3.93204 9.85392 4.02769 9.91317 4.11146C9.97242 4.19522 10.0492 4.26511 10.1381 4.31628C10.227 4.36746 10.326 4.39869 10.4282 4.40781C10.5304 4.41694 10.6334 4.40375 10.73 4.36915L12.09 3.88515C12.1559 3.86153 12.2274 3.85795 12.2953 3.87485C12.3633 3.89176 12.4248 3.92839 12.472 3.98015C13.0415 4.6071 13.4717 5.34773 13.734 6.15315C13.7556 6.21975 13.7569 6.29129 13.7376 6.35863C13.7184 6.42596 13.6795 6.48603 13.626 6.53115L12.524 7.46215C12.4455 7.52813 12.3824 7.61048 12.3392 7.70342C12.2959 7.79636 12.2735 7.89763 12.2735 8.00015C12.2735 8.10266 12.2959 8.20394 12.3392 8.29687C12.3824 8.38981 12.4455 8.47216 12.524 8.53815L13.626 9.46915C13.736 9.56215 13.778 9.71115 13.734 9.84715C13.4718 10.6526 13.0417 11.3933 12.472 12.0201C12.4248 12.0719 12.3633 12.1085 12.2953 12.1254C12.2274 12.1423 12.1559 12.1388 12.09 12.1151L10.73 11.6311C10.6334 11.5969 10.5305 11.584 10.4284 11.5933C10.3263 11.6025 10.2275 11.6338 10.1386 11.6849C10.0498 11.7361 9.97308 11.8058 9.91375 11.8894C9.85443 11.973 9.8139 12.0684 9.79496 12.1691L9.53496 13.5851C9.52234 13.6542 9.48943 13.7178 9.44045 13.7681C9.39147 13.8183 9.32864 13.8528 9.25996 13.8671C8.42954 14.0433 7.57139 14.0433 6.74096 13.8671C6.67235 13.8527 6.60958 13.8181 6.56062 13.7679C6.51166 13.7177 6.47871 13.6541 6.46596 13.5851L6.20696 12.1691C6.18834 12.0682 6.148 11.9726 6.08876 11.8888C6.02951 11.8051 5.95276 11.7352 5.86383 11.684C5.7749 11.6328 5.67591 11.6016 5.57371 11.5925C5.47151 11.5834 5.36855 11.5965 5.27196 11.6311L3.91196 12.1151C3.84602 12.1388 3.77456 12.1423 3.70659 12.1254C3.63862 12.1085 3.57716 12.0719 3.52996 12.0201C2.96029 11.3933 2.53014 10.6526 2.26796 9.84715C2.24632 9.78054 2.24504 9.709 2.26428 9.64166C2.28351 9.57433 2.3224 9.51426 2.37596 9.46915L3.47796 8.53815C3.55626 8.47206 3.6192 8.38968 3.66237 8.29676C3.70554 8.20384 3.7279 8.10261 3.7279 8.00015C3.7279 7.89769 3.70554 7.79646 3.66237 7.70354C3.6192 7.61061 3.55626 7.52823 3.47796 7.46215L2.37596 6.53115C2.3224 6.48603 2.28351 6.42596 2.26428 6.35863C2.24504 6.29129 2.24532 6.21975 2.26696 6.15315ZM6.24996 8.00015C6.24996 8.46428 6.43434 8.9094 6.76253 9.23758C7.09071 9.56577 7.53583 9.75015 7.99996 9.75015C8.46409 9.75015 8.90921 9.56577 9.2374 9.23758C9.56559 8.9094 9.74996 8.46428 9.74996 8.00015C9.74996 7.53602 9.56559 7.0909 9.2374 6.76271C8.90921 6.43452 8.46409 6.25015 7.99996 6.25015C7.53583 6.25015 7.09071 6.43452 6.76253 6.76271C6.43434 7.0909 6.24996 7.53602 6.24996 8.00015Z" fill="#312134"/>
</svg>
