<svg width="16" height="16" viewBox="0 0 16 16" fill="none" xmlns="http://www.w3.org/2000/svg">
<path d="M5.248 8.997C5.44651 8.997 5.6369 8.91814 5.77727 8.77777C5.91764 8.6374 5.9965 8.44701 5.9965 8.2485C5.9965 8.04999 5.91764 7.8596 5.77727 7.71923C5.6369 7.57886 5.44651 7.5 5.248 7.5C5.04949 7.5 4.8591 7.57886 4.71873 7.71923C4.57836 7.8596 4.4995 8.04999 4.4995 8.2485C4.4995 8.44701 4.57836 8.6374 4.71873 8.77777C4.8591 8.91814 5.04949 8.997 5.248 8.997ZM5.997 10.749C5.997 10.9475 5.91814 11.1379 5.77777 11.2783C5.6374 11.4186 5.44701 11.4975 5.2485 11.4975C5.04999 11.4975 4.8596 11.4186 4.71923 11.2783C4.57886 11.1379 4.5 10.9475 4.5 10.749C4.5 10.5505 4.57886 10.3601 4.71923 10.2197C4.8596 10.0794 5.04999 10.0005 5.2485 10.0005C5.44701 10.0005 5.6374 10.0794 5.77777 10.2197C5.91814 10.3601 5.997 10.5505 5.997 10.749ZM8 8.996C8.19838 8.996 8.38864 8.91719 8.52892 8.77692C8.66919 8.63664 8.748 8.44638 8.748 8.248C8.748 8.04962 8.66919 7.85936 8.52892 7.71908C8.38864 7.57881 8.19838 7.5 8 7.5C7.80149 7.5 7.6111 7.57886 7.47073 7.71923C7.33036 7.8596 7.2515 8.04999 7.2515 8.2485C7.2515 8.44701 7.33036 8.6374 7.47073 8.77777C7.6111 8.91814 7.80149 8.996 8 8.996ZM8.749 10.748C8.749 10.9465 8.67014 11.1369 8.52977 11.2773C8.3894 11.4176 8.19901 11.4965 8.0005 11.4965C7.80199 11.4965 7.6116 11.4176 7.47123 11.2773C7.33086 11.1369 7.252 10.9465 7.252 10.748C7.252 10.5495 7.33086 10.3591 7.47123 10.2187C7.6116 10.0784 7.80199 9.9995 8.0005 9.9995C8.19901 9.9995 8.3894 10.0784 8.52977 10.2187C8.67014 10.3591 8.749 10.5495 8.749 10.748ZM10.749 8.996C10.9475 8.996 11.1379 8.91714 11.2783 8.77677C11.4186 8.6364 11.4975 8.44601 11.4975 8.2475C11.4975 8.04899 11.4186 7.8586 11.2783 7.71823C11.1379 7.57786 10.9475 7.499 10.749 7.499C10.5505 7.499 10.3601 7.57786 10.2197 7.71823C10.0794 7.8586 10.0005 8.04899 10.0005 8.2475C10.0005 8.44601 10.0794 8.6364 10.2197 8.77677C10.3601 8.91714 10.5505 8.996 10.749 8.996ZM14 4.5C14 3.83696 13.7366 3.20107 13.2678 2.73223C12.7989 2.26339 12.163 2 11.5 2H4.5C3.83696 2 3.20107 2.26339 2.73223 2.73223C2.26339 3.20107 2 3.83696 2 4.5V11.5C2 12.163 2.26339 12.7989 2.73223 13.2678C3.20107 13.7366 3.83696 14 4.5 14H11.5C12.163 14 12.7989 13.7366 13.2678 13.2678C13.7366 12.7989 14 12.163 14 11.5V4.5ZM3 6H13V11.5C13 11.8978 12.842 12.2794 12.5607 12.5607C12.2794 12.842 11.8978 13 11.5 13H4.5C4.10218 13 3.72064 12.842 3.43934 12.5607C3.15804 12.2794 3 11.8978 3 11.5V6ZM4.5 3H11.5C11.8978 3 12.2794 3.15804 12.5607 3.43934C12.842 3.72064 13 4.10218 13 4.5V5H3V4.5C3 4.10218 3.15804 3.72064 3.43934 3.43934C3.72064 3.15804 4.10218 3 4.5 3Z" fill="#312134"/>
</svg>
