<svg width="16" height="16" viewBox="0 0 16 16" fill="none" xmlns="http://www.w3.org/2000/svg">
<path d="M8 15C6.14348 15 4.36301 14.2625 3.05025 12.9497C1.7375 11.637 1 9.85652 1 8C1 6.14348 1.7375 4.36301 3.05025 3.05025C4.36301 1.7375 6.14348 1 8 1C9.85652 1 11.637 1.7375 12.9497 3.05025C14.2625 4.36301 15 6.14348 15 8C15 9.85652 14.2625 11.637 12.9497 12.9497C11.637 14.2625 9.85652 15 8 15ZM4.538 8.191C4.562 8.249 4.598 8.304 4.644 8.351L4.647 8.354L7.147 10.854C7.19349 10.9004 7.24866 10.9372 7.30938 10.9623C7.37009 10.9874 7.43516 11.0003 7.50085 11.0003C7.56655 11.0002 7.6316 10.9872 7.69227 10.9621C7.75295 10.9369 7.80808 10.9 7.8545 10.8535C7.90092 10.807 7.93773 10.7518 7.96283 10.6911C7.98793 10.6304 8.00082 10.5653 8.00078 10.4996C8.00073 10.4339 7.98775 10.3689 7.96256 10.3082C7.93738 10.2475 7.90049 10.1924 7.854 10.146L6.207 8.5H11C11.1326 8.5 11.2598 8.44732 11.3536 8.35355C11.4473 8.25979 11.5 8.13261 11.5 8C11.5 7.86739 11.4473 7.74021 11.3536 7.64645C11.2598 7.55268 11.1326 7.5 11 7.5H6.207L7.854 5.854C7.94789 5.76011 8.00063 5.63278 8.00063 5.5C8.00063 5.36722 7.94789 5.23989 7.854 5.146C7.76011 5.05211 7.63278 4.99937 7.5 4.99937C7.36722 4.99937 7.23989 5.05211 7.146 5.146L4.646 7.646L4.644 7.649C4.57482 7.7188 4.52785 7.80751 4.50899 7.90396C4.49012 8.00041 4.50022 8.10028 4.538 8.191Z" fill="#312134"/>
</svg>
