<svg width="16" height="16" viewBox="0 0 16 16" fill="none" xmlns="http://www.w3.org/2000/svg">
<path d="M5.20004 1.3335H10.8C12.9334 1.3335 14.6667 3.06683 14.6667 5.20016V10.8002C14.6667 11.8257 14.2593 12.8092 13.5342 13.5343C12.809 14.2594 11.8255 14.6668 10.8 14.6668H5.20004C3.06671 14.6668 1.33337 12.9335 1.33337 10.8002V5.20016C1.33337 4.17466 1.74075 3.19116 2.46589 2.46602C3.19104 1.74088 4.17454 1.3335 5.20004 1.3335ZM5.06671 2.66683C4.43019 2.66683 3.81974 2.91969 3.36965 3.36977C2.91956 3.81986 2.66671 4.43031 2.66671 5.06683V10.9335C2.66671 12.2602 3.74004 13.3335 5.06671 13.3335H10.9334C11.5699 13.3335 12.1803 13.0806 12.6304 12.6306C13.0805 12.1805 13.3334 11.57 13.3334 10.9335V5.06683C13.3334 3.74016 12.26 2.66683 10.9334 2.66683H5.06671ZM11.5 3.66683C11.7211 3.66683 11.933 3.75463 12.0893 3.91091C12.2456 4.06719 12.3334 4.27915 12.3334 4.50016C12.3334 4.72118 12.2456 4.93314 12.0893 5.08942C11.933 5.2457 11.7211 5.3335 11.5 5.3335C11.279 5.3335 11.0671 5.2457 10.9108 5.08942C10.7545 4.93314 10.6667 4.72118 10.6667 4.50016C10.6667 4.27915 10.7545 4.06719 10.9108 3.91091C11.0671 3.75463 11.279 3.66683 11.5 3.66683ZM8.00004 4.66683C8.8841 4.66683 9.73194 5.01802 10.3571 5.64314C10.9822 6.26826 11.3334 7.11611 11.3334 8.00016C11.3334 8.88422 10.9822 9.73206 10.3571 10.3572C9.73194 10.9823 8.8841 11.3335 8.00004 11.3335C7.11599 11.3335 6.26814 10.9823 5.64302 10.3572C5.0179 9.73206 4.66671 8.88422 4.66671 8.00016C4.66671 7.11611 5.0179 6.26826 5.64302 5.64314C6.26814 5.01802 7.11599 4.66683 8.00004 4.66683ZM8.00004 6.00016C7.46961 6.00016 6.9609 6.21088 6.58583 6.58595C6.21075 6.96102 6.00004 7.46973 6.00004 8.00016C6.00004 8.5306 6.21075 9.0393 6.58583 9.41438C6.9609 9.78945 7.46961 10.0002 8.00004 10.0002C8.53047 10.0002 9.03918 9.78945 9.41425 9.41438C9.78933 9.0393 10 8.5306 10 8.00016C10 7.46973 9.78933 6.96102 9.41425 6.58595C9.03918 6.21088 8.53047 6.00016 8.00004 6.00016Z" fill="#312134"/>
</svg>
