<svg width="16" height="16" viewBox="0 0 16 16" fill="none" xmlns="http://www.w3.org/2000/svg">
<path d="M4 5.5C4 5.30302 4.0388 5.10796 4.11418 4.92597C4.18956 4.74399 4.30005 4.57863 4.43934 4.43934C4.57863 4.30005 4.74399 4.18956 4.92597 4.11418C5.10796 4.0388 5.30302 4 5.5 4C5.69698 4 5.89204 4.0388 6.07403 4.11418C6.25601 4.18956 6.42137 4.30005 6.56066 4.43934C6.69995 4.57863 6.81044 4.74399 6.88582 4.92597C6.9612 5.10796 7 5.30302 7 5.5C7 5.89782 6.84196 6.27936 6.56066 6.56066C6.27936 6.84196 5.89782 7 5.5 7C5.10218 7 4.72064 6.84196 4.43934 6.56066C4.15804 6.27936 4 5.89782 4 5.5ZM5.5 3C4.83696 3 4.20107 3.26339 3.73223 3.73223C3.26339 4.20107 3 4.83696 3 5.5C3 6.16304 3.26339 6.79893 3.73223 7.26777C4.20107 7.73661 4.83696 8 5.5 8C6.16304 8 6.79893 7.73661 7.26777 7.26777C7.73661 6.79893 8 6.16304 8 5.5C8 4.83696 7.73661 4.20107 7.26777 3.73223C6.79893 3.26339 6.16304 3 5.5 3ZM10.5 6C10.5 5.73478 10.6054 5.48043 10.7929 5.29289C10.9804 5.10536 11.2348 5 11.5 5C11.7652 5 12.0196 5.10536 12.2071 5.29289C12.3946 5.48043 12.5 5.73478 12.5 6C12.5 6.26522 12.3946 6.51957 12.2071 6.70711C12.0196 6.89464 11.7652 7 11.5 7C11.2348 7 10.9804 6.89464 10.7929 6.70711C10.6054 6.51957 10.5 6.26522 10.5 6ZM11.5 4C10.9696 4 10.4609 4.21071 10.0858 4.58579C9.71071 4.96086 9.5 5.46957 9.5 6C9.5 6.53043 9.71071 7.03914 10.0858 7.41421C10.4609 7.78929 10.9696 8 11.5 8C12.0304 8 12.5391 7.78929 12.9142 7.41421C13.2893 7.03914 13.5 6.53043 13.5 6C13.5 5.46957 13.2893 4.96086 12.9142 4.58579C12.5391 4.21071 12.0304 4 11.5 4ZM1.5 10.5C1.5 10.1022 1.65804 9.72064 1.93934 9.43934C2.22064 9.15804 2.60218 9 3 9H8C8.39782 9 8.77936 9.15804 9.06066 9.43934C9.34196 9.72064 9.5 10.1022 9.5 10.5V10.612C9.49894 10.6578 9.49561 10.7035 9.49 10.749C9.43301 11.2338 9.25259 11.6959 8.966 12.091C8.419 12.846 7.379 13.5 5.5 13.5C3.622 13.5 2.582 12.846 2.033 12.091C1.74676 11.6958 1.56669 11.2337 1.51 10.749C1.50502 10.7035 1.50169 10.6578 1.5 10.612V10.5ZM2.5 10.59V10.597L2.504 10.646C2.54273 10.9556 2.65899 11.2503 2.842 11.503C3.168 11.951 3.878 12.5 5.5 12.5C7.122 12.5 7.832 11.951 8.158 11.503C8.34101 11.2503 8.45727 10.9556 8.496 10.646C8.49779 10.6294 8.49913 10.6127 8.5 10.596V10.5C8.5 10.3674 8.44732 10.2402 8.35355 10.1464C8.25979 10.0527 8.13261 10 8 10H3C2.86739 10 2.74021 10.0527 2.64645 10.1464C2.55268 10.2402 2.5 10.3674 2.5 10.5V10.59ZM11.5 12.5C10.912 12.5 10.43 12.41 10.04 12.262C10.2003 11.9683 10.3217 11.655 10.401 11.33C10.669 11.431 11.025 11.5 11.5 11.5C12.619 11.5 13.078 11.118 13.28 10.834C13.3981 10.6683 13.473 10.4759 13.498 10.274L13.5 10.246C13.499 10.1804 13.4721 10.1178 13.4254 10.0718C13.3786 10.0258 13.3156 9.99999 13.25 10H10.45C10.3762 9.63737 10.2224 9.29575 10 9H13.25C13.94 9 14.5 9.56 14.5 10.25V10.267C14.4988 10.3034 14.4961 10.3398 14.492 10.376C14.4496 10.7508 14.3127 11.1087 14.094 11.416C13.672 12.007 12.881 12.5 11.5 12.5Z" fill="#312134"/>
</svg>
