<svg width="16" height="16" viewBox="0 0 16 16" fill="none" xmlns="http://www.w3.org/2000/svg">
<path d="M9.30903 10.0158C8.41045 10.7337 7.27109 11.0802 6.12496 10.9843C4.97883 10.8884 3.91293 10.3573 3.14617 9.50003C2.37941 8.64278 1.96998 7.52447 2.00199 6.37478C2.03399 5.22509 2.505 4.13129 3.31827 3.31802C4.13153 2.50475 5.22533 2.03375 6.37502 2.00174C7.52471 1.96974 8.64302 2.37916 9.50027 3.14592C10.3575 3.91269 10.8887 4.97859 10.9846 6.12472C11.0805 7.27085 10.7339 8.4102 10.016 9.30879L13.854 13.1458C13.9479 13.2397 14.0007 13.367 14.0007 13.4998C14.0007 13.6326 13.9479 13.7599 13.854 13.8538C13.7601 13.9477 13.6328 14.0004 13.5 14.0004C13.3673 14.0004 13.2399 13.9477 13.146 13.8538L9.31003 10.0158H9.30903ZM10 6.49979C10 6.04016 9.9095 5.58503 9.73361 5.16039C9.55772 4.73575 9.29991 4.34992 8.9749 4.02491C8.6499 3.69991 8.26406 3.4421 7.83942 3.26621C7.41478 3.09032 6.95966 2.99979 6.50003 2.99979C6.0404 2.99979 5.58528 3.09032 5.16064 3.26621C4.736 3.4421 4.35016 3.69991 4.02516 4.02491C3.70015 4.34992 3.44234 4.73575 3.26645 5.16039C3.09056 5.58503 3.00003 6.04016 3.00003 6.49979C3.00003 7.42804 3.36878 8.31828 4.02516 8.97466C4.68153 9.63104 5.57177 9.99979 6.50003 9.99979C7.42829 9.99979 8.31853 9.63104 8.9749 8.97466C9.63128 8.31828 10 7.42804 10 6.49979Z" fill="#312134"/>
</svg>
