<svg width="16" height="16" viewBox="0 0 16 16" fill="none" xmlns="http://www.w3.org/2000/svg">
<path fill-rule="evenodd" clip-rule="evenodd" d="M8.00004 2.02283C7.96137 2.09016 7.91804 2.1675 7.86737 2.25883L7.80204 2.37616L7.78671 2.40283C7.73471 2.49883 7.64804 2.6575 7.50337 2.7675C7.35604 2.8795 7.17804 2.91816 7.07471 2.94083L7.04537 2.94683L6.91871 2.9755C6.80137 3.00216 6.70604 3.0235 6.62537 3.04416C6.67804 3.10883 6.74671 3.19016 6.83604 3.29483L6.92271 3.39616L6.94271 3.41883C7.01471 3.50216 7.13071 3.6355 7.18471 3.80883C7.23804 3.9795 7.21937 4.1555 7.20804 4.26616C7.20687 4.2766 7.20575 4.28704 7.20471 4.2975L7.19137 4.43283C7.18138 4.53499 7.17205 4.63721 7.16337 4.7395C7.23337 4.70883 7.31204 4.67283 7.40604 4.6295L7.52537 4.57483L7.55204 4.5615C7.64804 4.51683 7.81404 4.43816 8.00004 4.43816C8.18604 4.43816 8.35204 4.51683 8.44804 4.56216L8.47471 4.57483L8.59404 4.6295C8.68737 4.67283 8.76737 4.7095 8.83671 4.7395C8.82803 4.63721 8.8187 4.53499 8.80871 4.43283L8.79537 4.2975C8.79433 4.28704 8.79321 4.2766 8.79204 4.26616C8.78071 4.15483 8.76204 3.9795 8.81537 3.80883C8.86871 3.6355 8.98537 3.50216 9.05737 3.41883L9.07737 3.39616L9.16404 3.29483C9.25337 3.19016 9.32204 3.10883 9.37471 3.04416C9.29404 3.02416 9.19871 3.00216 9.08137 2.9755L8.95471 2.94683L8.92537 2.94016C8.82204 2.91816 8.64404 2.8795 8.49671 2.76683C8.35204 2.6575 8.26537 2.49883 8.21337 2.4035L8.19804 2.37616L8.13271 2.25883C8.08204 2.1675 8.03937 2.09016 8.00004 2.02283ZM7.34271 1.20016C7.45737 1.05016 7.66537 0.833496 8.00004 0.833496C8.33471 0.833496 8.54271 1.05016 8.65737 1.20016C8.76737 1.34283 8.87737 1.54083 8.99071 1.74416L9.00604 1.7715L9.07137 1.8895L9.10937 1.95616L9.17537 1.9715L9.30204 2.00016L9.33404 2.00683C9.55204 2.05683 9.76937 2.1055 9.93604 2.1715C10.12 2.24416 10.3694 2.38483 10.466 2.69483C10.5607 2.99816 10.4414 3.2555 10.3374 3.4215C10.2407 3.57483 10.094 3.7455 9.94404 3.92083L9.92404 3.94416L9.83737 4.04616L9.78271 4.11083C9.78404 4.13483 9.78737 4.16283 9.79071 4.20083L9.80404 4.33616L9.80671 4.36683C9.82937 4.6015 9.85137 4.82816 9.84337 5.0095C9.83537 5.20016 9.79004 5.48816 9.53137 5.6835C9.26471 5.88616 8.97137 5.84216 8.78471 5.78816C8.61271 5.7395 8.40937 5.6455 8.20471 5.5515L8.17604 5.53816L8.05604 5.48283L8.00004 5.45683L7.94337 5.4835L7.82404 5.53816L7.79471 5.5515C7.59071 5.6455 7.38804 5.7395 7.21537 5.78816C7.02871 5.8415 6.73537 5.88616 6.46871 5.6835C6.21071 5.48816 6.16471 5.20016 6.15671 5.01016C6.14871 4.82816 6.17004 4.6015 6.19337 4.36683L6.19604 4.33616L6.20937 4.20083L6.21804 4.11083C6.19974 4.08915 6.18129 4.0676 6.16271 4.04616L6.07604 3.94416L6.05604 3.92083C5.90604 3.7455 5.75937 3.57416 5.66271 3.42083C5.55871 3.2555 5.43937 2.99816 5.53404 2.69416C5.63004 2.3855 5.88004 2.24416 6.06404 2.1715C6.23071 2.1055 6.44804 2.05683 6.66604 2.0075L6.69737 2.00083L6.82471 1.9715L6.89137 1.95616L6.92871 1.8895L6.99404 1.7715L7.00937 1.74416C7.12271 1.54083 7.23271 1.34283 7.34271 1.20016ZM7.30071 6.16683H8.69937C9.14271 6.16683 9.52471 6.16683 9.83071 6.20816C10.1587 6.25216 10.4727 6.3515 10.7274 6.60616C10.982 6.86083 11.0814 7.17483 11.1254 7.50283C11.1667 7.80883 11.1667 8.19083 11.1667 8.63416V10.2782C11.276 10.2448 11.3887 10.2235 11.5027 10.2082C11.8087 10.1668 12.1907 10.1668 12.634 10.1668H12.6994C13.1427 10.1668 13.5247 10.1668 13.8307 10.2082C14.1587 10.2522 14.4727 10.3515 14.7274 10.6062C14.982 10.8608 15.0814 11.1748 15.1254 11.5028C15.1667 11.8088 15.1667 12.1908 15.1667 12.6342V14.6668C15.1667 14.7994 15.114 14.9266 15.0203 15.0204C14.9265 15.1142 14.7993 15.1668 14.6667 15.1668C14.5341 15.1668 14.4069 15.1142 14.3132 15.0204C14.2194 14.9266 14.1667 14.7994 14.1667 14.6668V12.6668C14.1667 12.1815 14.1654 11.8668 14.1347 11.6362C14.1054 11.4195 14.058 11.3515 14.02 11.3135C13.982 11.2755 13.914 11.2282 13.6974 11.1988C13.466 11.1682 13.152 11.1668 12.6667 11.1668C12.1814 11.1668 11.8667 11.1682 11.636 11.1988C11.4194 11.2282 11.3514 11.2755 11.3134 11.3135C11.2754 11.3515 11.228 11.4195 11.1987 11.6362C11.168 11.8675 11.1667 12.1815 11.1667 12.6668V14.6668C11.1667 14.7994 11.114 14.9266 11.0203 15.0204C10.9265 15.1142 10.7993 15.1668 10.6667 15.1668C10.5341 15.1668 10.4069 15.1142 10.3132 15.0204C10.2194 14.9266 10.1667 14.7994 10.1667 14.6668V8.66683C10.1667 8.1815 10.1654 7.86683 10.1347 7.63616C10.1054 7.4195 10.058 7.3515 10.02 7.3135C9.98204 7.2755 9.91404 7.22816 9.69737 7.19883C9.46604 7.16816 9.15204 7.16683 8.66671 7.16683H7.33337C6.84804 7.16683 6.53337 7.16816 6.30271 7.19883C6.08604 7.22816 6.01804 7.2755 5.98004 7.3135C5.94204 7.3515 5.89471 7.4195 5.86537 7.63616C5.83471 7.8675 5.83337 8.1815 5.83337 8.66683V14.6668C5.83337 14.7994 5.78069 14.9266 5.68693 15.0204C5.59316 15.1142 5.46598 15.1668 5.33337 15.1668C5.20077 15.1668 5.07359 15.1142 4.97982 15.0204C4.88605 14.9266 4.83337 14.7994 4.83337 14.6668C4.83337 14.1815 4.83204 13.8668 4.80137 13.6362C4.77204 13.4195 4.72471 13.3515 4.68671 13.3135C4.64871 13.2755 4.58071 13.2282 4.36404 13.1988C4.13271 13.1682 3.81871 13.1668 3.33337 13.1668C2.84804 13.1668 2.53337 13.1682 2.30271 13.1988C2.08604 13.2282 2.01804 13.2755 1.98004 13.3135C1.94204 13.3515 1.89471 13.4195 1.86537 13.6362C1.83471 13.8675 1.83337 14.1815 1.83337 14.6668C1.83337 14.7994 1.7807 14.9266 1.68693 15.0204C1.59316 15.1142 1.46598 15.1668 1.33337 15.1668C1.20077 15.1668 1.07359 15.1142 0.979821 15.0204C0.886052 14.9266 0.833374 14.7994 0.833374 14.6668V14.6335C0.833374 14.1908 0.833374 13.8088 0.874707 13.5028C0.918707 13.1748 1.01804 12.8608 1.27271 12.6062C1.52737 12.3515 1.84204 12.2522 2.16937 12.2082C2.47537 12.1668 2.85737 12.1668 3.30071 12.1668H3.36604C3.80937 12.1668 4.19137 12.1668 4.49737 12.2082C4.61137 12.2235 4.72404 12.2455 4.83337 12.2782V8.63416C4.83337 8.19083 4.83337 7.80883 4.87471 7.50283C4.91871 7.17483 5.01804 6.86083 5.27271 6.60616C5.52737 6.3515 5.84204 6.25216 6.16937 6.20816C6.47537 6.16683 6.85737 6.16683 7.30071 6.16683Z" fill="#312134"/>
</svg>
